<?xml version="1.0" standalone="no"?>
<!DOCTYPE svg PUBLIC "-//W3C//DTD SVG 1.1//EN" "http://www.w3.org/Graphics/SVG/1.1/DTD/svg11.dtd" >
<svg>
<metadata>
Created by FontForge 20110222 at Mon Oct  7 06:58:13 2013
 By www-data
Typeface (c) (your company). 2013. All Rights Reserved
</metadata>
<defs>
<font id="FunintheJungle" horiz-adv-x="616" >
  <font-face 
    font-family="Fun in the Jungle"
    font-weight="400"
    font-stretch="normal"
    units-per-em="2048"
    panose-1="2 0 5 0 0 0 0 0 0 0"
    ascent="1638"
    descent="-410"
    x-height="735"
    cap-height="1134"
    bbox="-612 -876 1133 1492"
    underline-thickness="150"
    underline-position="-142"
    unicode-range="U+0020-2122"
  />
    <missing-glyph />
    <glyph glyph-name="nonbreakingspace" unicode=" " horiz-adv-x="508" 
 />
    <glyph glyph-name="nonbreakingspace" unicode="&#xa0;" horiz-adv-x="508" 
 />
    <glyph glyph-name="exclam" unicode="!" horiz-adv-x="367" 
d="M30 1115q31 -17 163 -29q95 9 136 22q20 8 24 14q-105 -233 -105 -559q0 -37 1 -74q7 -187 21 -305q-41 16 -80 16q-20 0 -39 -4q-41 -2 -59 -14q24 211 24 344q0 31 -1 58q-7 143 -85 531zM261 116q15 -18 15 -45q0 -7 -1 -14q-5 -34 -32 -58q-25 -27 -61 -29h-5
q-33 0 -55 28q-24 26 -27 64v6q0 34 21 57q21 24 61 24q6 0 12 -1q49 -3 72 -32z" />
    <glyph glyph-name="quotedbl" unicode="&#x22;" horiz-adv-x="500" 
d="M40 1125q91 6 137 40q23 17 27 33q-1 -20 -1 -42q0 -84 21 -186q14 -64 29 -109q-10 2 -21 2q-22 0 -44 -9q-15 -7 -25 -14q-25 114 -77 211q-25 49 -46 74zM303 1022q17 86 17 142q0 26 -4 46q18 -21 44 -42q49 -39 88 -39h6q-27 -38 -53 -87q-51 -93 -51 -145v-6
q-47 18 -68 18q-4 0 -7 -1q15 51 28 114z" />
    <glyph glyph-name="numbersign" unicode="#" horiz-adv-x="584" 
d="M222 363q30 -2 59 -2q43 0 83 4q8 84 10 161q-49 5 -95 5q-22 0 -44 -1q-11 -89 -13 -167zM513 398q-7 -26 -7 -51q0 -30 10 -59q9 -27 21 -43q-54 11 -110 18q0 -92 6 -147q-20 18 -45 18q-11 0 -23 -3q-20 -5 -35 -15q14 78 23 153q-26 1 -51 1q-43 0 -85 -3
q2 -87 16 -156q-23 16 -50 27q-22 8 -38 8q-24 0 -36 -17q10 47 22 129q-57 -9 -91 -19q7 20 7 43q0 26 -8 55q-7 28 -18 48q63 -11 123 -17q7 75 12 151q-58 -12 -103 -36q8 34 10 74q1 15 1 28q0 57 -21 78q44 -12 116 -21q1 30 1 60t-1 60q15 -13 37 -20q13 -4 25 -4
q29 0 52 24q-12 -50 -25 -127q31 -1 63 -1q31 0 63 1q-2 76 -9 114q26 -20 51 -20q13 0 25 5q19 6 31 19q-10 -55 -18 -112q43 5 84 12q-8 -23 -8 -55v-11q0 -58 30 -98q-49 16 -121 28q-6 -71 -9 -142q56 10 83 23z" />
    <glyph glyph-name="dollar" unicode="$" horiz-adv-x="662" 
d="M511 209q13 26 13 54q0 80 -107 175q8 -166 16 -284q52 0 78 55zM297 925q-50 -32 -50 -102v-5q2 -80 70 -171q-9 160 -20 278zM493 640q-9 214 -82 282q-3 -66 -3 -145q0 -106 5 -233q14 -13 29 -25q191 -154 191 -299q0 -15 -2 -31q-9 -66 -61 -113q-50 -46 -124 -60
q7 -58 12 -72q-38 21 -80 21q-7 0 -14 -1q-24 -3 -40 -10q2 28 3 61q-7 1 -12 2q-100 21 -212 106q-57 43 -93 81q29 10 72 80q28 43 28 82q0 23 -10 45q117 -148 230 -219q-1 149 -8 322q-148 111 -178 150q-62 81 -62 160q0 41 17 81q45 109 176 141q-13 50 -27 83
q42 -16 86 -16q21 0 42 3q35 6 56 16q-7 -21 -13 -88q92 -33 170 -160q39 -63 58 -120q-8 4 -18 4q-27 0 -64 -32q-51 -44 -72 -96z" />
    <glyph glyph-name="percent" unicode="%" horiz-adv-x="900" 
d="M275 -23q-38 18 -95 18q-40 0 -89 -9q120 192 243 426q227 469 244 682q65 -26 127 -26q50 0 98 17q-335 -567 -528 -1108zM674 56h1q27 0 44 62q17 57 18 139v10q0 78 -15 135q-17 68 -48 77q-4 1 -8 1q-28 0 -43 -55q-14 -51 -14 -127v-20q1 -87 19 -150q17 -71 46 -72
zM806 468q53 -86 59 -204q1 -13 1 -26q0 -103 -43 -171q-50 -79 -143 -79q-10 0 -20 1q-108 9 -153 102q-26 54 -26 127q0 34 6 72q15 111 67 193q52 84 110 84h4q82 -3 138 -99zM231 571q29 0 41 66q8 43 8 101q0 22 -1 45q-5 84 -20 144q-17 62 -37 62h-2q-32 -3 -48 -69
q-12 -49 -12 -115q0 -14 1 -29q3 -83 21 -141q20 -64 49 -64zM221 1066q75 0 125 -85q47 -79 52 -188v-18q0 -101 -41 -174q-51 -89 -151 -97q-7 -1 -14 -1q-88 0 -128 81q-28 55 -28 133q0 28 4 60q12 114 63 198q52 91 118 91z" />
    <glyph glyph-name="ampersand" unicode="&#x26;" horiz-adv-x="748" 
d="M509 295q-57 151 -157 243q-73 -69 -108 -148q-28 -61 -28 -117q0 -10 1 -20q6 -63 44 -98q33 -32 81 -32q10 0 19 1q88 7 148 171zM281 997q-30 -38 -33 -94q-1 -9 -1 -18q0 -50 23 -97q29 -63 88 -104q78 98 78 219v12q0 55 -21 88q-20 35 -53 35h-2q-48 -2 -79 -41z
M671 292q50 -129 66 -275q-57 -4 -119 -43q-31 -26 -51 -60q3 28 3 60q0 51 -8 113q-89 -128 -206 -132q-19 -2 -37 -2q-111 0 -204 79q-71 76 -80 184q-2 18 -2 35q0 89 43 175q55 111 186 178q-97 58 -135 152q-21 54 -21 110q0 34 8 70q21 91 85 138q67 52 154 52
q76 0 135 -31t81 -101q10 -34 10 -71q0 -45 -15 -94q-30 -100 -120 -201q64 -55 118 -131q20 117 36 235q21 -70 60 -132q42 -57 78 -62q-15 -107 -65 -246z" />
    <glyph glyph-name="quotesingle" unicode="'" horiz-adv-x="228" 
d="M74 1108q29 -10 62 -10q31 0 65 9q-18 -25 -22 -67q-8 -35 -8 -72q0 -56 18 -117q-11 5 -36 7h-11q-36 0 -93 -15q12 41 15 92q2 19 2 38q0 88 -36 157q17 -11 44 -22z" />
    <glyph glyph-name="parenleft" unicode="(" horiz-adv-x="509" 
d="M469 1227q-6 -29 -6 -62q0 -50 13 -109q-37 13 -74 13q-45 0 -90 -19q-176 -101 -180 -515v-18q0 -294 97 -472q44 -67 98 -80q30 -19 58 -19q32 0 60 26q-9 -39 -9 -73q0 -76 43 -130q-27 -9 -67 -9q-81 0 -149 47q-217 149 -234 706v29q10 418 124 569q101 134 332 163
q-9 -11 -16 -47z" />
    <glyph glyph-name="parenright" unicode=")" horiz-adv-x="509" 
d="M29 1274q231 -29 332 -163q114 -151 124 -569v-29q-17 -557 -234 -706q-68 -47 -149 -47q-40 0 -67 9q43 54 43 130q0 34 -9 73q28 -26 60 -26q28 0 58 19q54 13 98 80q97 178 97 472v18q-4 414 -180 515q-45 19 -90 19q-37 0 -74 -13q13 59 13 109q0 33 -6 62
q-7 36 -16 47z" />
    <glyph glyph-name="asterisk" unicode="*" horiz-adv-x="384" 
d="M341 895q-15 -2 -31 -13q-34 -21 -46 -64q-32 67 -66 118q-7 -14 -15 -49q-12 -53 -17 -70q-6 14 -21 29q-28 30 -69 32q34 29 72 77q-5 0 -21 4q-14 4 -24 5q-21 4 -45 4q-12 0 -25 -1q10 11 18 31t8 41q0 19 -7 40q57 -53 112 -74q-13 52 -46 128q14 -6 33 -7h5
q37 0 66 27q-11 -53 -11 -104q0 -16 1 -33q37 37 75 97q2 -16 11 -34q19 -38 59 -53q-76 -26 -125 -61q11 -11 45 -31q47 -27 64 -39z" />
    <glyph glyph-name="plus" unicode="+" 
d="M583 374q-105 12 -227 16q9 -122 36 -226q-18 13 -48 21q-19 4 -39 4q-43 0 -88 -20q13 94 14 222q-98 -3 -200 -19q13 31 13 61q0 42 -25 84q104 -25 210 -32q-8 135 -59 270q77 -25 133 -25q43 0 73 15q-24 -126 -24 -238v-24q136 7 217 51q-9 -30 -12 -66
q2 -70 26 -94z" />
    <glyph glyph-name="comma" unicode="," horiz-adv-x="256" 
d="M235 74q0 -35 -18 -80q-30 -71 -84 -132q-11 69 -63 98q43 11 69 55q13 22 17 42q-6 -15 -22 -27q-16 -11 -35 -11t-40 10q-32 15 -38 48q-2 8 -2 16q0 22 12 45q17 31 48 45q18 8 36 8t36 -7q84 -33 84 -110z" />
    <glyph glyph-name="hyphen" unicode="-" horiz-adv-x="647" 
d="M274 511q71 -6 128 -6q145 0 205 40q-3 -14 -5 -44q-1 -15 -1 -30q0 -56 9 -117q-46 14 -141 22q-63 5 -133 5q-139 0 -302 -21q6 20 9 51q3 26 3 52q0 37 -6 72q108 -22 234 -24z" />
    <glyph glyph-name="hyphen" unicode="&#xad;" horiz-adv-x="647" 
d="M274 511q71 -6 128 -6q145 0 205 40q-3 -14 -5 -44q-1 -15 -1 -30q0 -56 9 -117q-46 14 -141 22q-63 5 -133 5q-139 0 -302 -21q6 20 9 51q3 26 3 52q0 37 -6 72q108 -22 234 -24z" />
    <glyph glyph-name="period" unicode="." horiz-adv-x="222" 
d="M181 142q22 -24 22 -58v-6q-1 -36 -27 -61q-28 -28 -72 -28q-43 0 -67 30q-21 27 -21 64v3q1 39 24 65t57 26h7q50 -4 77 -35z" />
    <glyph glyph-name="slash" unicode="/" horiz-adv-x="575" 
d="M205 -203q-38 25 -90 25q-45 0 -99 -18q93 239 173 563q156 595 156 876q0 25 -1 47q52 -22 111 -22q49 0 103 16q-238 -756 -353 -1487z" />
    <glyph glyph-name="zero" unicode="0" horiz-adv-x="624" 
d="M312 65h1q40 0 70 139q27 130 31 311q1 27 1 52q0 153 -21 259q-28 142 -84 142q-39 0 -69 -141q-28 -130 -34 -308q-1 -32 -1 -62q0 -145 20 -248q27 -142 86 -144zM310 1070q110 0 192 -170q76 -158 89 -375q3 -43 3 -83q0 -171 -52 -293q-74 -172 -226 -174h-4
q-149 0 -223 168q-56 127 -56 309q0 33 2 68q11 218 84 378q80 172 191 172z" />
    <glyph glyph-name="one" unicode="1" horiz-adv-x="429" 
d="M233 1079q48 -13 86 -13q50 0 83 22q-24 -253 -24 -503q0 -325 40 -643q-56 36 -127 36q-10 0 -21 -1q-43 -3 -72 -15q59 499 59 764q0 106 -9 174q-35 -109 -105 -218q-6 82 -62 165q-28 41 -55 66q119 39 175 107q28 33 32 59z" />
    <glyph glyph-name="two" unicode="2" horiz-adv-x="543" 
d="M59 570q-29 104 -29 191q0 131 65 225q46 68 113 95q37 15 80 15q34 0 71 -9q104 -31 141 -87q28 -42 28 -107q0 -27 -5 -59q-25 -166 -302 -722q47 9 105 34q118 50 180 133q-15 -128 -15 -207q0 -71 12 -103q-139 30 -277 30q-104 0 -207 -17q107 228 204 467
q143 335 143 450q0 56 -34 60h-6q-80 0 -88 -163q-1 -23 -1 -47q0 -53 6 -106q-35 -2 -84 -20q-49 -19 -100 -53z" />
    <glyph glyph-name="three" unicode="3" horiz-adv-x="561" 
d="M272 1070q26 3 50 3q139 0 191 -109q27 -57 27 -126q0 -61 -21 -132q-29 -101 -120 -177q44 -28 82 -85q58 -87 58 -191q0 -35 -7 -72q-35 -198 -207 -198q-33 0 -72 7q-119 24 -230 95q45 20 71 89q13 34 17 66q73 -57 147 -84q41 -15 71 -15q80 0 85 105v16
q0 146 -144 158q-15 1 -29 1q-61 0 -124 -20q7 25 7 50q0 57 -35 111q17 -2 34 -2q81 0 142 49q63 51 93 137q17 53 17 98q0 23 -4 44q-14 66 -60 66q-80 0 -92 -128q-3 -27 -3 -54q0 -38 6 -76q-37 23 -93 23q-38 0 -84 -10q-2 27 -2 52q0 109 45 189q61 105 184 120z" />
    <glyph glyph-name="four" unicode="4" horiz-adv-x="547" 
d="M31 1105q47 -23 106 -23q22 0 46 3q44 7 75 20q-64 -314 -64 -610q0 -48 2 -96q46 -22 90 -22q10 0 21 1q27 5 42 15q13 125 13 247q0 131 -15 258q-14 123 -34 194q46 -12 98 -12t110 12q-25 -381 -25 -653q0 -153 8 -272q11 -164 29 -209q-70 28 -131 28q-19 0 -37 -3
q-39 -5 -59 -18q42 134 42 227q0 32 -5 59q-69 27 -141 27q-37 0 -74 -7q-56 -9 -91 -27q32 163 32 371q0 95 -7 199q-11 168 -31 291z" />
    <glyph glyph-name="five" unicode="5" horiz-adv-x="533" 
d="M499 1113q-41 -123 -41 -237q-157 46 -233 46h-6q-24 -107 -24 -221t24 -234h9q74 0 146 -31q146 -66 146 -227v-17q-9 -194 -259 -222q-47 -6 -93 -6q-78 0 -155 16q56 73 56 171q0 11 -1 22q82 -23 164 -30q24 -2 45 -2q120 0 120 70q0 117 -172 130q-19 1 -39 1
q-66 0 -132 -13q11 227 11 393q0 149 -9 248q-9 108 -22 131q106 -27 212 -27q60 0 121 9q83 11 132 30z" />
    <glyph glyph-name="six" unicode="6" horiz-adv-x="614" 
d="M315 62h2q56 0 87 97q28 89 28 221q0 130 -27 222q-29 101 -77 101q-42 0 -74 -98q-30 -93 -37 -220q-2 -31 -2 -59q0 -93 18 -161q26 -101 82 -103zM579 543q9 -53 9 -108q0 -74 -16 -150q-26 -129 -87 -214q-65 -91 -145 -97h-16q-126 0 -202 117q-73 112 -86 300
q-2 37 -2 73q0 140 36 275q49 179 141 268q71 69 206 99q67 15 120 16q-24 -19 -24 -91q0 -21 2 -46q5 -56 16 -106q-53 13 -98 13q-90 0 -151 -51q-45 -38 -59 -84q40 30 92 45q33 10 62 10q62 0 104 -47q75 -85 98 -222z" />
    <glyph glyph-name="seven" unicode="7" horiz-adv-x="624" 
d="M10 1108q175 -46 338 -46q44 0 87 3q102 9 158 30q-156 -391 -236 -798q-41 -204 -49 -329q-46 29 -111 29q-21 0 -44 -3q-48 -5 -83 -19q74 121 198 494q109 326 109 400q0 10 -2 15q-11 28 -66 28q-43 0 -113 -17q-80 -19 -156 -48q0 179 -30 261z" />
    <glyph glyph-name="eight" unicode="8" horiz-adv-x="610" 
d="M393 160q15 52 15 125q0 19 -1 39q-5 96 -30 165q-27 73 -62 73h-1q-38 -1 -68 -76q-29 -72 -35 -166q-1 -19 -1 -36q0 -76 21 -128q30 -73 94 -73h2q45 1 66 77zM319 697q37 0 58 51q18 45 18 106v7q-1 67 -22 111q-23 48 -61 48h-3q-30 -3 -54 -53q-23 -49 -27 -111
q-1 -13 -1 -26q0 -50 16 -84q24 -49 76 -49zM555 461q38 -89 38 -174q0 -75 -29 -147q-31 -76 -91 -118q-82 -42 -166 -42h-11q-83 3 -164 56q-56 47 -84 126q-27 75 -27 148q0 89 41 175q53 107 136 149q-100 45 -130 126q-15 42 -15 85q0 36 10 72q22 81 81 134
q84 58 169 60h9q76 0 152 -49q56 -49 73 -129q7 -31 7 -62q0 -48 -17 -95q-31 -85 -130 -140q92 -45 148 -175z" />
    <glyph glyph-name="nine" unicode="9" horiz-adv-x="624" 
d="M405 472q18 71 18 166q0 29 -2 60q-7 131 -39 223q-34 97 -79 97h-4q-41 -2 -68 -104q-24 -96 -24 -226q0 -134 27 -221q31 -100 87 -100h1q56 2 83 105zM284 1118h6q120 0 198 -114q72 -106 90 -280q5 -50 5 -100q0 -120 -29 -237q-43 -177 -137 -282q-65 -73 -185 -111
q-59 -20 -106 -24q14 46 14 101q0 70 -23 153q39 -12 77 -12q80 0 152 54q53 41 81 87q-35 -39 -87 -62q-39 -17 -75 -17q-62 0 -115 49q-90 83 -118 222q-12 57 -12 117q0 70 16 143q29 132 95 219q70 92 153 94z" />
    <glyph glyph-name="colon" unicode=":" horiz-adv-x="222" 
d="M182 215q22 -24 22 -58v-6q-2 -36 -27 -61q-28 -28 -72 -28t-68 30q-20 27 -20 64v3q1 39 23 65q32 26 68 26h7q50 -4 67 -35zM50 531q25 24 60 24h3q37 -2 63 -27q28 -27 29 -71q0 -44 -30 -68q-27 -22 -66 -22q-39 1 -66 23q-26 22 -26 57v7q3 50 33 77z" />
    <glyph glyph-name="semicolon" unicode=";" horiz-adv-x="249" 
d="M59 531q26 24 61 24h3q37 -2 62 -27q29 -27 29 -71v-3q0 -42 -29 -65q-27 -22 -67 -22q-39 1 -65 23q-27 22 -27 59v5q4 50 33 77zM235 134q0 -35 -18 -80q-30 -71 -84 -132q-11 69 -63 98q43 11 69 55q13 22 17 42q-6 -15 -22 -27q-16 -11 -35 -11t-40 10q-32 15 -38 48
q-2 8 -2 16q0 22 12 45q17 31 48 45q18 8 36 8t36 -7q84 -33 84 -110z" />
    <glyph glyph-name="semicolon" unicode="&#x37e;" horiz-adv-x="249" 
d="M59 531q26 24 61 24h3q37 -2 62 -27q29 -27 29 -71v-3q0 -42 -29 -65q-27 -22 -67 -22q-39 1 -65 23q-27 22 -27 59v5q4 50 33 77zM235 134q0 -35 -18 -80q-30 -71 -84 -132q-11 69 -63 98q43 11 69 55q13 22 17 42q-6 -15 -22 -27q-16 -11 -35 -11t-40 10q-32 15 -38 48
q-2 8 -2 16q0 22 12 45q17 31 48 45q18 8 36 8t36 -7q84 -33 84 -110z" />
    <glyph glyph-name="less" unicode="&#x3c;" horiz-adv-x="684" 
d="M662 609q-11 1 -24 1q-32 0 -79 -8q-163 -24 -317 -114q23 -37 82 -77q118 -82 331 -81q-49 -102 -6 -316q-110 71 -191 162q-163 183 -422 326q121 66 320 170t229 174q12 -146 77 -237z" />
    <glyph glyph-name="equal" unicode="=" horiz-adv-x="646" 
d="M65 604q106 -58 255 -58q42 0 88 5q103 11 179 36q-14 -69 -14 -132q0 -15 1 -29q2 -39 8 -60q-123 55 -276 55q-34 0 -70 -3q-98 -8 -165 -29q4 53 4 98q0 38 -3 69q-3 34 -7 48zM274 275q71 -6 128 -6q145 0 205 40q-3 -14 -5 -44q-1 -13 -1 -26q0 -50 9 -111
q-46 14 -141 22q-63 5 -133 5q-139 0 -302 -21q6 20 9 51q3 26 3 52q0 37 -6 72q108 -22 234 -34z" />
    <glyph glyph-name="greater" unicode="&#x3e;" horiz-adv-x="684" 
d="M102 846q31 -70 306 -209q123 -69 244 -125q-259 -153 -422 -336q-81 -91 -111 -152v10q0 126 -24 211q-20 45 -31 62q182 22 300 104q59 40 82 77q-154 90 -317 114q-47 8 -79 8q-13 0 -24 -1q65 91 76 237z" />
    <glyph glyph-name="question" unicode="?" horiz-adv-x="561" 
d="M235 -2q-15 16 -15 38q0 6 1 13q6 28 30 50q26 22 61 24h5q31 0 53 -23t25 -55v-6q0 -29 -19 -48q-21 -21 -62 -21h-10q-48 4 -69 28zM536 805v-6q0 -164 -69 -289.5t-79 -223.5q0 -16 1 -32q7 -61 24 -108q-42 31 -84 34h-6q-39 0 -103 -22q34 202 95 319q73 142 73 290
v23q-2 66 -20 108q-18 43 -45 46h-8q-81 0 -84 -184v-11q0 -92 15 -185q-52 60 -145 69q-16 1 -30 1q-29 0 -53 -5q37 34 46 84q3 18 6 57q3 50 6 76q14 130 93 178q43 26 102 26q43 0 95 -14q167 -44 170 -231z" />
    <glyph glyph-name="at" unicode="@" horiz-adv-x="810" 
d="M486 369h1q32 0 55 50q21 47 24 114q1 13 1 25q0 53 -14 90q-18 53 -55 53q-33 0 -54 -51q-18 -46 -20 -114v-14q0 -57 14 -100q17 -52 48 -53zM727 395v-31q0 -159 49 -217q-67 -51 -169 -83q-83 -26 -160 -26q-116 0 -221 57q-121 66 -172 223q-29 90 -29 188
q0 59 11 122q30 166 124 267q91 99 215 99q17 0 34 -2q128 -11 205 -126q80 -102 94 -244q2 -22 2 -43q0 -113 -59 -193q-54 -102 -158 -102h-8q-109 4 -162 83q-38 58 -38 137q0 17 2 35q10 98 66 169q61 77 146 78q24 0 26 15v3q0 14 -15 32q-42 51 -110 61q-11 2 -22 2
q-71 0 -120 -68q-73 -99 -84 -327q-1 -12 -1 -24q0 -116 62 -199t162 -104q29 -6 57 -6q68 0 131 37q97 58 142 187z" />
    <glyph glyph-name="A" unicode="A" horiz-adv-x="732" 
d="M449 370q-15 81 -47 230t-55 346q-25 -93 -54 -251.5t-44 -304.5zM738 -25q-32 3 -63 3q-105 0 -190 -37q14 35 14 100q3 32 3 62q0 89 -25 157l-247 19q-17 -64 -17 -122q0 -88 38 -164q-58 12 -107 12q-82 0 -140 -33q187 735 187 1014q0 59 -8 98q85 -27 160 -27
q71 0 132 24q9 -149 53 -378q60 -435 210 -728z" />
    <glyph glyph-name="B" unicode="B" horiz-adv-x="608" 
d="M322 968q-62 0 -100 -68q-36 -64 -39 -159v-16q0 -85 28 -147q36 -75 98 -79h3q52 0 90 69q35 65 43 159q1 19 1 36q0 73 -22 126q-31 75 -96 79h-6zM378 135q26 48 26 117q-1 70 -28 117q-28 51 -78 51h-2q-50 -1 -75 -55q-20 -41 -20 -97q0 -10 1 -20q3 -69 29 -117
q28 -51 69 -51h2q48 1 76 55zM540 344q19 -44 19 -94q0 -30 -7 -63q-17 -85 -71 -144q-57 -63 -132 -65h-6q-77 0 -138 50q7 -45 13 -64q-28 15 -69 23q-27 5 -50 5q-49 0 -85 -22q13 115 21 296q4 89 4 183q0 289 -35 626q25 -15 64 -23q11 -2 24 -2q44 0 103 20
q-4 -20 -9 -38q49 14 107 16h12q136 0 203 -67q69 -71 80 -180q2 -19 2 -37q0 -85 -41 -165q-51 -103 -125 -150q83 -27 116 -105z" />
    <glyph glyph-name="C" unicode="C" horiz-adv-x="627" 
d="M427 -6q-51 -13 -96 -13q-97 0 -168 58q-128 106 -148 378q-5 66 -5 125q0 220 67 358q78 158 220 169q12 1 24 1q124 0 207 -104q57 -56 84 -146q-89 -10 -149 -61q-30 -25 -41 -48q-2 60 -18 165t-92 106h-1q-65 0 -98 -143q-22 -103 -22 -245q0 -36 1 -74
q6 -187 42 -321q38 -146 102 -146q72 0 72 122q0 16 -1 35q-11 73 -30 136q25 -24 61 -46q76 -31 127 -31q17 0 31 3q-4 -50 -36.5 -152t-132.5 -126z" />
    <glyph glyph-name="D" unicode="D" horiz-adv-x="635" 
d="M449 497q0 253 -85 373q-54 75 -114 76q-28 0 -36 -87q-5 -52 -5 -147q0 -94 5 -232q8 -258 14 -323q7 -84 24 -85h2q190 0 195 402v23zM503 910q115 -159 123 -350q1 -15 1 -31q0 -182 -99 -360q-89 -159 -296 -184q-51 -5 -95 -5q-70 0 -122 12q11 0 23 58
q23 282 23 496q0 232 -27 383q-6 91 -22 123q45 7 101 7q46 0 101 -5q202 -23 289 -144z" />
    <glyph glyph-name="E" unicode="E" horiz-adv-x="667" 
d="M450 666q-65 194 -132 219q-10 4 -20 4q-42 0 -79 -76q-39 -79 -52 -191q-4 -34 -4 -60q0 -49 16 -65q24 -23 86 -24h3q78 0 152 51q-28 -51 -28 -110q0 -32 8 -67q-32 17 -73 27q-31 8 -57 8q-39 0 -63 -20q-8 -8 -8 -30q0 -9 1 -20q5 -41 24 -81q49 -100 130 -100
q7 0 15 1q48 6 78 117q15 55 18 111q25 -21 59 -39q48 -25 92 -25q19 0 37 5q-20 -81 -66 -164q-84 -163 -215 -165h-5q-150 0 -231 111q-122 156 -127 489q5 166 58 295q77 140 179 188q62 27 117 27q77 0 140 -52q97 -82 148 -262h-9q-29 0 -63 -10q-81 -24 -129 -92z" />
    <glyph glyph-name="F" unicode="F" horiz-adv-x="556" 
d="M200 399q10 -15 61 -15q23 0 55 3q181 10 226 60q-31 -100 -31 -169q0 -27 5 -50q-151 29 -227 29q-52 0 -68 -14q-9 -8 -9 -33q0 -36 20 -108q22 -44 69 -126q-54 19 -115 19q-34 0 -70 -6q-65 -14 -97 -39q29 133 29 292q0 121 -17 258q-21 107 -21 197q0 110 31 195
q72 133 195 174q38 6 72 6q135 0 211 -99q47 -67 55 -193q-76 -6 -138 -50q-30 -23 -46 -44q-2 81 -32 171q-37 29 -64 29q-9 0 -16 -3q-44 -11 -79 -67q-39 -61 -39 -155v-5q13 -221 40 -257z" />
    <glyph glyph-name="G" unicode="G" horiz-adv-x="658" 
d="M607 721q-8 -177 -8 -319q0 -174 12 -297q10 -106 21 -131q-51 15 -100 15q-52 0 -103 -17q59 195 74 520q-7 -126 -34 -253q-53 -253 -151 -253h-1q-12 -1 -23 -1q-139 0 -206 145q-64 121 -68 394q-3 53 -3 100q0 200 51 308q58 136 199 149q39 3 72 3q76 0 127 -17
q89 -40 93 -114q6 -101 42 -135q-32 5 -74 5q-21 0 -45 -1q-90 -4 -116 -19q7 37 7 76q0 25 -3 52q-15 51 -56 51q-12 0 -28 -5q-58 -21 -83 -157q-14 -85 -14 -192q0 -63 5 -134q13 -183 39 -287t80.5 -92.5t67 161.5t12.5 240q0 18 -1 36q-12 9 -32 9q-40 0 -112 -40
q6 56 6 98q0 56 -10 88q30 -28 124 -28q29 0 64 3q114 11 175 39z" />
    <glyph glyph-name="H" unicode="H" horiz-adv-x="682" 
d="M477 408q24 3 24 91q0 81 -20 234q-6 164 -51 328q60 -12 124 -12q55 0 114 9q-21 -32 -32 -164q-5 -70 -6 -362v-24q0 -415 34 -532q-58 21 -115 21q-46 0 -92 -13q19 34 38 134q5 37 5 67q0 20 -2 38q-2 21 -54 50q-37 28 -144 42t-107 -10v-29q0 -181 45 -305
q-67 19 -125 19q-55 0 -101 -18q29 64 38 513q2 81 2 153q0 318 -36 457q50 -18 118 -18q56 0 125 12q-18 -63 -32 -164q-32 -269 -33 -408q2 -67 98.5 -89t142.5 -22q25 0 42 2z" />
    <glyph glyph-name="I" unicode="I" horiz-adv-x="305" 
d="M14 1134q106 -61 170 -51.5t104 21.5q-65 -247 -65 -548q0 -112 9 -231q21 -215 54 -381q-54 62 -261 30q33 253 33 529q0 193 -16 398q-4 142 -28 233z" />
    <glyph glyph-name="J" unicode="J" horiz-adv-x="672" 
d="M657 423q1 -20 1 -40q0 -301 -234 -387q-49 -16 -93 -16q-133 0 -226 143q-63 95 -88 202q8 -1 16 -1q24 0 53 8q70 11 129 92q9 -74 36 -142q43 -121 113 -121q20 0 42 10q56 20 84 137q21 87 21 204q0 20 -1 40q-3 135 -27 241q-25 101 -59 101h-2q-43 4 -93 4
q-130 0 -301 -25q27 92 27 159q0 37 -8 66q199 -43 369 -43q129 0 240 25q-13 -18 -21 -58q-18 -53 -18 -123q0 -36 5 -77q35 -392 35 -399z" />
    <glyph glyph-name="K" unicode="K" horiz-adv-x="647" 
d="M349 876q25 69 25 117q0 19 -4 34q-7 28 -20 38q62 -11 121 -11q82 0 158 22q-76 -77 -165 -203q-122 -206 -122 -268v-6q242 -531 354 -705q-97 76 -211 78q-58 0 -96 -14q-6 208 -66 419q-70 149 -136 167q1 -303 28 -468q14 -79 29 -93q-60 23 -122 23q-53 0 -107 -17
q33 91 33 529q0 431 -40 554q62 -13 112 -13q58 0 101 17q-40 -117 -40 -298q0 -66 5 -140q109 118 163 238z" />
    <glyph glyph-name="L" unicode="L" horiz-adv-x="572" 
d="M7 1089q80 -24 136 -24q53 0 84 21q-63 -543 -63 -849q0 -35 1 -67q37 -17 102 -17q128 2 264 80v-15q0 -90 31 -255q-91 25 -203 36q-48 3 -92 3q-157 0 -253 -43q33 266 23 513q0 324 -30 617z" />
    <glyph glyph-name="M" unicode="M" horiz-adv-x="895" 
d="M863 287q0 -287 32 -377q-60 20 -110 20t-91 -20q12 332 18 593q14 141 14 236q0 200 -62 200q-17 0 -40 -16q-60 -37 -69 -180q-7 -58 -7 -162q0 -87 5 -207q10 -284 47 -394q-85 20 -148 20q-62 0 -103 -20q31 267 36 530q9 114 9 197q0 214 -58 214q-24 0 -58 -38
q-72 -133 -75 -454q0 -231 16 -467q-44 16 -91 16q-49 0 -101 -18q17 283 17 520q0 163 -8 309q-10 179 -26 267q26 -5 52 -5q60 0 117 29q-33 -61 -34 -214q8 83 80 170q63 58 115 58q19 0 36 -7q63 -26 103 -154v3q3 4 29 62t70 90q26 18 64 18q24 0 54 -8
q60 -20 102 -120q67 -180 67 -533q0 -38 -1 -78q-1 -42 -1 -80z" />
    <glyph glyph-name="N" unicode="N" horiz-adv-x="658" 
d="M616 297q0 -241 40 -332q-66 20 -126 20q-59 0 -113 -20q36 271 43 529q5 84 5 152q0 298 -102 298q-15 0 -32 -7q-140 -66 -140 -462q0 -29 1 -60q1 -227 31 -438q-47 15 -99 15q-56 0 -117 -17q29 354 29 619q0 266 -29 444q34 -11 69 -11q54 0 112 25
q-39 -60 -64 -229q33 110 119 177q75 57 144 57q17 0 34 -4q81 -16 130 -110q70 -152 70 -445q0 -68 -4 -144q-1 -29 -1 -57z" />
    <glyph glyph-name="O" unicode="O" horiz-adv-x="630" 
d="M324 58h2q64 0 96 146q18 116 18 296v31q0 184 -29 314q-33 145 -87 145h-2q-39 -1 -67 -148q-27 -137 -32 -323q-1 -33 -1 -64q0 -150 20 -248q26 -147 82 -149zM308 1063q9 1 18 1q158 0 237 -168q59 -135 59 -322q0 -47 -4 -96q-6 -240 -66 -371q-70 -116 -210 -116
h-26q-133 0 -199 103q-73 113 -102 386q-3 48 -3 93q0 174 49 300q71 182 247 190z" />
    <glyph glyph-name="P" unicode="P" horiz-adv-x="620" 
d="M297 254h2q49 0 80 113q29 104 31 250v18q0 137 -28 223q-27 89 -74 89q-8 0 -17 -3q-48 -15 -76 -125q-24 -96 -24 -224v-10q1 -134 28 -226q29 -103 78 -105zM316 1075q43 0 91 -22q90 -42 146 -140q59 -103 59 -239v-39q0 -165 -84 -342q-62 -125 -193 -134
q-96 0 -145 74q8 -169 75 -255q-44 22 -91 22q-29 0 -59 -8q-50 -11 -104 -28q24 221 24 480q0 68 -2 140q2 91 2 163q0 155 -10 220q-3 112 -21 126q35 -24 80 -39q35 -9 71 -9q46 0 94 15q32 15 67 15z" />
    <glyph glyph-name="Q" unicode="Q" horiz-adv-x="647" 
d="M306 48q7 80 12 128q-13 -4 -27 -4q-23 0 -49 10q24 -109 64 -134zM229 769q-13 -147 -13 -272q0 -135 15 -243q10 -1 19 -1q71 0 129 53q-10 -129 -16 -250q46 45 66 195q14 99 14 223q0 50 -2 104q-8 214 -40 325q-35 121 -87 121h-3q-55 -3 -82 -255zM821 -49
q23 0 44 -6q87 -7 145 -42q64 -50 102 -159q-53 31 -156 48q-22 2 -43 2q-145 0 -283 -94q-88 -53 -160 -53q-62 0 -112 38q-67 63 -67 171q0 26 4 56q3 38 6 73q-138 12 -203 114q-72 113 -78 364q-3 59 -3 113q0 220 50 338q74 174 250 181h16q165 0 245 -154
q61 -117 61 -328q0 -75 -8 -162q-18 -243 -80 -350q-62 -109 -190 -117q1 -108 40 -143q20 -35 64 -35q60 0 164 66q109 79 192 79z" />
    <glyph glyph-name="R" unicode="R" horiz-adv-x="626" 
d="M317 963h-3q-48 0 -78 -115q-28 -106 -31 -253v-10q0 -144 28 -235q28 -90 75 -90q8 0 17 3q48 16 75 128q24 94 24 217v19q-1 138 -28 231q-30 104 -79 105zM412 182q186 -260 345 -374q-104 41 -198 41q-24 0 -48 -3q-59 -6 -91 -23q-11 123 -81 243q-61 103 -130 148
q8 -158 68 -246q-56 36 -128 36q-12 0 -24 -1q-58 -7 -116 -24q65 330 65 611q0 51 -2 100q-12 191 -37 320q-21 80 -50 91q99 -32 145 -38q15 -3 35 -3q35 0 82 8q34 16 71 16q40 0 85 -19q89 -39 147 -136q64 -111 64 -262q1 -23 1 -45q0 -157 -62 -281
q-60 -120 -141 -159z" />
    <glyph glyph-name="S" unicode="S" horiz-adv-x="578" 
d="M391 185q19 21 19 48q0 33 -29 77q-14 21 -137 177q-127 130 -180 223q-48 81 -48 162q0 41 12 81q42 129 205 129q47 0 104 -11q133 -51 237 -113q-58 -49 -83 -152q-12 -57 -13 -105q-64 87 -148 141q-61 36 -101 36h-6q-40 -4 -46 -45q-1 -6 -1 -13q0 -37 30 -92
q44 -77 137 -180q16 -17 69 -75q41 -43 63 -69q65 -89 83 -151q9 -29 9 -58q0 -49 -25 -100q-67 -106 -175 -106q-79 0 -180 57q-114 73 -169 197q54 94 54 260q0 26 -1 54q58 -120 128 -226q92 -162 155 -162q20 0 37 16z" />
    <glyph glyph-name="T" unicode="T" horiz-adv-x="633" 
d="M597 972q0 -41 14 -77q-96 22 -156 22q-53 0 -78 -17q-10 -7 -10 -65q0 -182 91 -857q-35 19 -82 19q-34 0 -73 -10q-47 -12 -83 -30q44 115 52 528q1 40 1 77q0 125 -8 225q-10 120 -32 120h-1q-66 -5 -214 -36q8 40 8 88q0 54 -10 119q142 -20 276 -20q173 0 331 34
q-26 -65 -26 -120z" />
    <glyph glyph-name="U" unicode="U" 
d="M30 853q0 179 -26 243q60 -20 114 -20q55 0 104 20q-34 -285 -41 -555q-1 -50 -1 -94q0 -372 92 -372q14 0 31 9q130 70 130 492v44q2 49 2 96q0 186 -25 361q46 -16 93 -16q51 0 103 19q-36 -321 -36 -589q0 -121 7 -232q13 -192 31 -281q-27 3 -58 3q-51 0 -112 -9
q36 63 56 246q-13 -78 -77 -165t-227.5 -50.5t-167.5 557.5q0 69 4 145q4 82 4 148z" />
    <glyph glyph-name="V" unicode="V" horiz-adv-x="726" 
d="M19 1032q15 -2 32 -2q32 0 70 7q119 22 203 109q-9 -114 -9 -240q0 -59 2 -120q4 -427 87 -680q88 639 100 1042q25 -26 62 -47q52 -30 99 -30q20 0 40 6q-132 -401 -197 -1099q-31 17 -71 25q-18 2 -35 2q-61 0 -115 -27q0 141 -50 431q-69 349 -218 623z" />
    <glyph glyph-name="W" unicode="W" horiz-adv-x="834" 
d="M780 527q-24 -363 -120 -492q-38 -59 -89 -61h-5q-35 0 -69 42q-52 102 -79 315q-37 -246 -100 -324q-46 -55 -87 -55q-16 0 -32 9q-49 28 -87 142q-69 214 -65 622q1 47 1 87q0 213 -28 251q45 -17 100 -17t119 17q-40 -486 -40 -725q0 -155 13 -205q20 -28 35 -28
q10 0 18 12q27 28 49 116q37 156 37 412v51q-14 292 -65 403q55 -19 115 -19t125 19q-20 -268 -25 -525q-4 -89 -4 -159q0 -275 57 -275q15 0 34 19q42 72 42 320q0 66 -3 144q-18 222 -45 450q33 -15 96 -15q64 0 138 15q-38 -144 -36 -546z" />
    <glyph glyph-name="X" unicode="X" horiz-adv-x="684" 
d="M435 469q150 -285 232 -544q-34 9 -68 9q-70 0 -144 -35q4 26 4 60t-4 75q-15 169 -94 342q-19 38 -43 81q-108 -238 -112 -483q-38 24 -87 24q-46 0 -101 -22q92 328 251 555q-146 247 -158 270q-80 152 -98 277q65 -28 125 -28q66 0 127 34v-30q0 -197 73 -412
q87 166 117 422q38 -21 84 -21q26 0 55 7q39 10 66 26q-83 -240 -246 -498q-9 -13 -19 -28q18 -42 40 -81z" />
    <glyph glyph-name="Y" unicode="Y" horiz-adv-x="639" 
d="M247 290q1 19 1 35q0 147 -47 175q-96 57 -152 189q-41 96 -41 248q0 72 9 156q63 -19 112 -19q62 0 103 30q-31 -110 -56 -303q-1 -20 -1 -38q0 -188 112 -198q9 -1 17 -1q127 0 127 187q0 24 -20.5 129.5t-62.5 231.5q40 -17 94 -27q38 -7 72 -7q61 0 110 24
q-29 -131 -29 -239q0 -44 -6 -122.5t-46 -151.5t-162 -109q-26 -8 -26 -91q0 -67 17 -184q20 -120 50 -257q-7 24 -74 39.5t-153 -4.5q47 145 52 307z" />
    <glyph glyph-name="Z" unicode="Z" horiz-adv-x="628" 
d="M33 848q10 50 10 97q0 91 -39 171q137 -67 363 -67q116 0 256 18q-192 -261 -352 -930q122 0 226 82q52 42 79 81q8 -246 66 -350q-91 55 -324 55q-26 0 -55 -1q-160 -13 -245 -38q40 38 96 181q133 267 304 776q-243 -16 -385 -75z" />
    <glyph glyph-name="bracketleft" unicode="[" horiz-adv-x="460" 
d="M420 1261q-8 -36 -8 -70q0 -33 8 -63q-67 26 -134 26q-48 0 -97 -13q-16 -259 -19 -586q-1 -42 -1 -83q0 -294 50 -559q41 -10 83 -13q74 5 130 41q-14 -41 -14 -87q0 -37 10 -78q-128 24 -221 24q-98 0 -158 -27q12 389 12 689q0 558 -41 813q103 -11 184 -11
q164 0 236 44q-12 -15 -20 -47z" />
    <glyph glyph-name="backslash" unicode="\" horiz-adv-x="540" 
d="M16 1294q52 -18 106 -18q48 0 98 14q-3 -34 -3 -73q0 -282 158 -850q90 -324 183 -593q-67 9 -119 9q-69 0 -110 -16q-75 761 -313 1527z" />
    <glyph glyph-name="bracketright" unicode="]" horiz-adv-x="460" 
d="M20 1308q72 -44 236 -44q81 0 184 11q-41 -255 -41 -813q0 -300 12 -689q-60 27 -158 27q-93 0 -221 -24q10 41 10 78q0 46 -14 87q56 -36 130 -41q42 3 83 13q50 265 50 559q0 41 -1 83q-3 327 -9 586q-53 13 -103 13q-71 0 -138 -26q8 30 8 63q0 34 -8 70q-8 32 -20 47
z" />
    <glyph glyph-name="asciicircum" unicode="^" horiz-adv-x="446" 
d="M220 1278q12 -2 23 -2q21 0 40 8v-6q0 -42 14 -95q28 -113 105 -177q-12 4 -37 4h-5q-47 0 -105 -17q-4 115 -17 185q-14 -18 -27 -56q-23 -65 -23 -150q0 -16 1 -32q-13 9 -37 20q-48 20 -102 25q14 8 39 50q51 84 104 253q10 -6 27 -10z" />
    <glyph glyph-name="underscore" unicode="_" horiz-adv-x="803" 
d="M127 6q120 -12 265 -12q146 0 277 12q65 6 102 12q-8 -29 -10 -69q-1 -12 -1 -23q0 -66 25 -113q-19 7 -54 17q-70 19 -152 28q-75 8 -153 8q-43 0 -86 -2q-154 -10 -312 -51q12 28 18 68q5 29 5 56q0 45 -14 81q30 -6 90 -12z" />
    <glyph glyph-name="grave" unicode="`" horiz-adv-x="348" 
d="M51 1015l4 3q42 29 63 86q4 -10 11 -20q12 -18 32 -36q63 -58 167 -90l-4 -1q-8 -7 -20 -20q-27 -32 -33 -144q-10 21 -22 39q-19 27 -42 46q-102 107 -197 119q18 5 41 18z" />
    <glyph glyph-name="a" unicode="a" horiz-adv-x="618" 
d="M244 53h1q43 0 73 60q27 58 30 138q1 12 1 23q0 67 -21 113q-27 58 -74 58h-5q-30 -2 -54 -63q-22 -56 -27 -134q-1 -14 -1 -28q0 -60 15 -104q19 -61 62 -63zM14 717q8 -1 18 -1q44 0 111 12q94 16 139 16h18q152 0 208 -149t58 -330q-3 -38 -3 -72q0 -105 41 -234
q-11 16 -108 29q-50 7 -79 7q-26 0 -33 -6q40 101 40 196v9q-5 -64 -31 -115q-51 -94 -154 -94h-13q-121 6 -172 91q-34 58 -34 135q0 23 3 47q12 104 69 175q69 74 143 74h10q103 -7 149 -88q24 -43 25 -92q2 28 2 46q0 37 -7 78q-16 112 -81 160q-23 17 -51 17
q-49 0 -111 -45q-60 -41 -96 -93v7q0 61 -16 134q-17 68 -45 86z" />
    <glyph glyph-name="b" unicode="b" horiz-adv-x="674" 
d="M408 693q-3 1 -6 1q-33 0 -58 -79q-24 -76 -29 -288q-1 -24 -1 -45q0 -84 15 -146q21 -85 65 -85h1q44 2 65 84q16 62 16 153v30q-2 204 -22 285q-19 85 -46 90zM228 -31q-60 28 -119 28q-45 0 -90 -16q38 155 38 515q0 359 -39 574q17 -9 89 -16q13 -1 25 -1q62 0 93 26
q-43 -216 -43 -475q0 -79 4 -162q19 163 63 221q72 91 171 91q26 0 53 -6q92 -19 139 -126q36 -80 36 -254q0 -32 -1 -68q-8 -126 -63 -212q-60 -95 -153 -97h-4q-132 0 -199 130q-34 67 -42 133q2 -160 42 -285z" />
    <glyph glyph-name="c" unicode="c" horiz-adv-x="579" 
d="M489 584q-43 -32 -55 -79q-4 45 -23 91q-36 102 -132 108q-53 -5 -75 -115q-16 -74 -16 -172q0 -21 1 -43q3 -126 26 -214q25 -98 65 -100h5q64 0 98 114q17 58 22 118q14 -30 75 -76q53 -40 83 -40q5 0 9 1q-18 -56 -69 -108q-83 -84 -210 -84q-27 0 -56 4
q-94 13 -153 115q-54 92 -64 227q-2 28 -2 56q0 99 32.5 202t101.5 143.5t153.5 40.5t150.5 -43q63 -42 100 -98q-24 -16 -67 -48z" />
    <glyph glyph-name="d" unicode="d" horiz-adv-x="676" 
d="M285 56q53 0 77 89q15 55 15 128q0 31 -3 66q-7 189 -37 286q-28 60 -61 60q-8 0 -16 -4q-32 -5 -54 -92q-20 -81 -23 -264v-9q0 -107 23 -175q27 -84 79 -85zM483 506q3 72 3 137q0 287 -61 426q33 -20 88 -20q26 0 58 5q73 26 98 38q-54 -94 -60 -531v-57
q0 -307 50 -530q-23 9 -70 9q-12 0 -27 -1q-68 -3 -94 -21q10 26 18 133q3 41 3 71q0 25 -2 54q-5 -66 -38 -122q-65 -111 -203 -112q-94 0 -159 94q-57 87 -70 214q-3 46 -3 87q0 140 32 216q45 108 138 140q45 14 86 14q82 0 145 -56q47 -41 68 -188z" />
    <glyph glyph-name="e" unicode="e" horiz-adv-x="552" 
d="M254 669q-52 0 -75 -115q-12 -62 -13 -123l178 18q-1 57 -14 115q-23 105 -76 105zM269 66h5q44 0 81 101q18 52 26 108q18 -27 81 -66q50 -30 90 -44q-27 -44 -74 -90q-93 -90 -195 -91h-2q-122 0 -195 118q-67 105 -70 261v18q0 142 55 244q64 110 176 110h2
q169 0 249 -183q41 -97 46 -193q-49 9 -107 9q-44 0 -93 -5q-112 -13 -179 -34q3 -63 18 -128q28 -128 86 -135z" />
    <glyph glyph-name="f" unicode="f" horiz-adv-x="324" 
d="M517 1329q110 0 225 7q-85 -48 -106.5 -98t-2.5 -129q-123 60 -202 63h-13q-180 0 -197 -270q298 2 447 19q-42 -59 -47 -91q-7 -49 -12 -74q-73 42 -389 45q2 -441 40 -675q19 -117 36 -144q-52 16 -137 16q-87 0 -130 -16q17 18 33 132q28 202 28 581v108
q-163 -14 -227 -42v13q0 22 -5 51q-6 55 -52 83q150 -17 284 -5q15 426 368 426h59z" />
    <glyph glyph-name="g" unicode="g" horiz-adv-x="660" 
d="M273 -339h4q96 0 146 61q-124 35 -216 35q-50 0 -91 -10q-45 -11 -51 -28v-3q0 -17 37 -26q108 -29 171 -29zM274 50q4 -1 7 -1q36 0 64 82q27 80 32 230q2 36 2 68q0 86 -15 147q-23 91 -70 91q-47 -1 -71 -89q-19 -69 -19 -182v-23q3 -143 22 -228q21 -90 48 -95z
M795 -319q-5 -54 -5 -100v-26q-126 79 -252 129q-71 -111 -215 -112h-7q-185 0 -275 53q-67 38 -67 94q0 11 3 23q14 67 102 109q70 34 156 34q30 0 62 -4q96 -14 181 -21q8 46 8 94v31q0 133 -8 159q-20 -51 -67 -95q-68 -65 -157 -65q-33 0 -68 8q-93 22 -136 133
q-29 77 -29 203q0 42 3 89q14 133 71 223q64 99 156 99h5q132 0 180 -96q30 -49 32 -98q-1 68 -2 68v-9q-17 152 -41 173q20 -7 108 -19q25 -4 47 -4q37 0 64 13q-35 -54 -35 -325q0 -96 4 -219q-2 -285 -17 -372q61 -3 108 -3q115 0 150 19q-46 -50 -59 -186z" />
    <glyph glyph-name="h" unicode="h" horiz-adv-x="628" 
d="M224 1083q-33 -109 -33 -264q0 -116 -2 -249q5 42 26 84q41 85 122 90q11 2 22 2q160 0 223 -330q14 -261 26 -439q-84 22 -155.5 12t-86.5 -19q51 189 54 373v6q0 260 -77 260q-8 0 -18 -3q-100 -30 -100 -337v-42q-1 -23 -1 -46q0 -100 21 -211q-143 43 -235 -8
q38 130 38 470q0 79 -2 170q1 69 1 128q0 313 -35 378q39 -13 98 -14q59 8 147 44q-16 -15 -33 -55z" />
    <glyph glyph-name="i" unicode="i" horiz-adv-x="298" 
d="M132.5 724.5q64.5 -13.5 148.5 10.5q-77 -67 -87 -302q0 -30 1 -63q8 -236 76 -390q-40 12 -118 18q-22 2 -42 2q-55 0 -102 -12q67 162 72 404v35q0 255 -55 327q42 -16 106.5 -29.5zM241 1033v2q0 28 -27 49q-27 22 -65 28q-10 2 -20 2q-26 0 -47 -13q-30 -19 -32 -64
v-8q0 -41 26 -67q25 -27 64 -28h6q34 0 61 22q31 28 34 77z" />
    <glyph glyph-name="j" unicode="j" horiz-adv-x="286" 
d="M-157 -176q140 0 204 159q44 114 44 377q0 41 -1 86q-5 153 -36 303q39 -18 109 -18q69 0 87 19q-13 -62 -20 -317q0 -23 -4 -177q-1 -136 -6 -260q-19 -233 -163 -318q-86 -52 -205 -52q-52 0 -110 10q-168 29 -227 29q-10 0 -17 -1q29 35 55 119q27 79 27 121v3
q154 -83 263 -83zM216 1080q19 -25 19 -55q0 -5 -1 -11q-4 -37 -30 -61q-24 -23 -60 -23q-7 0 -14 1q-43 4 -60 36q-10 18 -10 41q0 12 2 24q7 36 30 62q21 24 45 24q3 0 7 -1q48 -5 72 -37z" />
    <glyph glyph-name="k" unicode="k" horiz-adv-x="692" 
d="M380 114q0 171 -68 312h-1q-6 0 -60 -77q-58 -84 -58 -88q-1 -22 -1 -43q0 -153 45 -223q-44 11 -116 13q-72 -7 -101 -24q30 151 30 560q0 79 -1 168q-6 276 -35 446q56 -23 130 -25q86 10 124 26q-67 -134 -73 -379q-6 -234 -6 -311q59 82 131 180q4 24 4 46
q0 56 -25 102q83 -22 164.5 -19t202.5 18l-19 -12q-24 -14 -49 -22q-114 -76 -198 -244q8 -100 106 -271q109 -226 166 -278q-35 19 -143 22h-23q-91 0 -137 -21q11 75 11 144z" />
    <glyph glyph-name="l" unicode="l" horiz-adv-x="305" 
d="M137 1055q59 8 126 30q-71 -103 -51 -435q-2 -391 75 -676q-39 17 -114 23q-21 3 -40 2q-53 -2 -97 -21q47 244 31 616q-3 385 -49 491q41 -23 119 -30z" />
    <glyph glyph-name="m" unicode="m" horiz-adv-x="890" 
d="M186 763q0 -2 2 -2l-25 -165v-2h2q45 144 170 144q119 0 170 -170q3 0 13 45q49 127 172 127h6q122 0 163 -108q22 -63 22 -148q0 -40 -18 -315v-2q0 -86 35 -188h-2q-25 15 -79 15h-19q-67 0 -133 -24q0 2 -2 2q31 48 69 358q8 88 8 137q0 124 -44 159q-18 6 -24 6h-11
q-67 0 -104 -205q-10 -73 -10 -131v-25q0 -130 52 -340h-2q-21 0 -83 8q-70 0 -131 -19v2q54 242 54 389v68q0 255 -98 255h-16q-87 0 -102 -213q-2 -9 -2 -47v-46q0 -206 56 -343q-62 26 -106 26q-60 0 -143 -26q0 2 -2 2q25 113 25 288q0 319 -42 465l4 2q32 -6 69 -9
q53 0 106 30z" />
    <glyph glyph-name="n" unicode="n" horiz-adv-x="706" 
d="M702 -7q-22 11 -68 11q-15 0 -33 -1q-83 -4 -132 -21q30 157 30 315v20q-6 336 -121 339h-1q-136 0 -139 -524v-10q0 -138 27 -144q-26 13 -75 13q-17 0 -37 -2q-87 -5 -117 -19q26 157 26 390q0 243 -42 412q33 -31 94 -31h4q66 1 83 15l-17 -217q2 53 28 106
q53 104 173 104h2q165 -2 237 -225q43 -137 54 -388q3 -84 24 -143z" />
    <glyph glyph-name="o" unicode="o" horiz-adv-x="633" 
d="M408 148q33 89 39 211q1 21 1 40q0 97 -24 158q-30 91 -91 91h-4q-59 -4 -93 -100q-28 -73 -28 -192v-8q0 -121 29 -206q32 -93 83 -93h1q51 2 87 99zM519 615q79 -110 95 -263q4 -34 4 -65q0 -119 -54 -198q-70 -104 -215 -104q-18 0 -37 2q-172 14 -245 139
q-43 75 -43 175q0 42 8 89q24 138 109 246q85 100 184 100h8q102 -5 186 -121z" />
    <glyph glyph-name="p" unicode="p" horiz-adv-x="705" 
d="M9 783h2q68 -30 104 -30q29 0 76 14v-2q0 -9 -29 -206v-2h2q60 216 267 216h8q138 0 214 -195q41 -118 41 -250q0 -164 -93 -282q-65 -56 -111 -56q-14 -6 -53 -6h-10q-147 0 -238 161q-6 10 -6 14h-2v-2q4 -49 4 -109v-16q0 -142 -57 -350q-81 -250 -261 -250h-6
q-142 0 -234 143q-56 84 -105 135q-49 38 -106 38h-28q34 68 131 105q22 6 41 6h8q89 0 202 -125q60 -48 105 -48q121 0 147 382q10 357 10 411q0 236 -23 304zM280 382q0 -156 62 -280q24 -32 46 -32h5q62 0 93 266q2 28 2 60v29q0 202 -68 255q-18 12 -38 12
q-88 0 -102 -239v-71z" />
    <glyph glyph-name="q" unicode="q" horiz-adv-x="663" 
d="M764 -377q15 0 32 14q30 26 51 79q-26 11 -48 11q-31 0 -53 -22q-17 -16 -18 -36v-2q0 -20 15 -34q10 -10 21 -10zM274 62q4 -1 9 -1q39 0 69 83q30 81 37 200q2 30 2 58q0 88 -17 151q-25 94 -79 94q-54 -1 -80 -91q-20 -71 -20 -179v-20q2 -112 24 -199q24 -92 55 -96z
M1065 -180q-50 -149 -50 -150q65 -110 67 -242v-7q0 -130 -77 -206q-92 -75 -189 -89q-14 -2 -27 -2q-81 0 -145 62q-150 136 -160 569q0 78 5 165q6 121 6 199q0 65 -4 94q0 -45 -48 -121q-59 -109 -186 -109q-25 0 -52 4q-97 16 -148 134q-41 94 -41 232q0 23 1 47
q9 127 71 226q68 111 179 114q140 -29 201 -149q32 -75 34 -150v19q0 180 -73 269q58 -30 114 -30q8 0 16 1q53 3 90 41q-24 -331 -24 -632q0 -283 22 -548q22 -175 88 -242q33 -33 71 -33q27 0 56 17q65 36 99 115q21 53 21 101q0 36 -12 70q-38 -51 -90 -85
q-26 -16 -54 -16q-25 0 -51 13q-53 25 -82 84q-19 38 -19 74q0 22 7 43q18 63 96 93q27 10 54 10q17 0 34 -4q1 12 1 24q0 70 -39 123q93 -45 173 -49h8q74 0 125 36q-39 -42 -68 -115z" />
    <glyph glyph-name="r" unicode="r" horiz-adv-x="514" 
d="M322 736q104 25 183 -9q-38 -31 -45.5 -87.5t5.5 -104.5q-66 45 -115 45q-115 0 -136 -249q-3 -35 -3 -70q0 -140 41 -296q-53 33 -113 33q-8 0 -16 -1q-69 -5 -104 -16q26 136 26 404q0 225 -32 365q23 -17 67 -17q9 0 18 1q57 3 91 18q-18 -24 -18 -88q0 -60 6 -118
q41 165 145 190z" />
    <glyph glyph-name="s" unicode="s" horiz-adv-x="564" 
d="M290 648h-2q-30 0 -55 -25q-25 -28 -25 -65q0 -94 156 -163q115 -48 156 -127q20 -38 20 -78q0 -31 -13 -64q-28 -71 -99 -112q-59 -36 -128 -36q-17 0 -34 2q-155 29 -256 166q32 19 70 72q38 52 45 108q59 -84 103.5 -137t85.5 -53q45 0 63 42q4 11 4 22q0 54 -103 103
q-155 81 -182 106q-62 52 -68 113q-1 9 -1 18q0 47 28 93q83 117 233 118q103 0 194 -131q45 -61 69 -112q-7 2 -14 2q-25 0 -60 -26q-45 -35 -63 -74q-6 51 -26 103q-40 131 -98 135z" />
    <glyph glyph-name="t" unicode="t" horiz-adv-x="224" 
d="M355.5 796q-104.5 0 -163.5 -5q-22 -180 -22 -327q-20 -540 230 -645q-48 -12 -104 -59t-74 -101q-56 57 -112 185q-82 230 -62 656q0 65 2 136q1 53 1 104v51q-270 20 -507 -48q21 73 11 133.5t-55 98.5q128 -51 243 -61q228 -20 315 -3q-3 138 -72 240q-39 62 -64 76
q51 0 108.5 17.5t102.5 76.5q79 -106 79 -261q0 -16 -1 -33q0 -19 -19 -115q74 -6 137 -6q202 0 303 61q-28 -36 -28 -82q0 -58 20 -117q-164 28 -268.5 28z" />
    <glyph glyph-name="u" unicode="u" 
d="M119 693h19q61 0 85 17q-27 -166 -34 -313q-2 -39 -2 -73q0 -231 89 -237h5q97 0 121 313q9 112 9 237q0 58 -2 118q17 -36 96 -39q69 6 97 31q-24 -128 -24 -302v-39q3 -356 20 -455q-20 25 -79 28q-16 1 -29 1q-35 0 -50 -6q9 22 17 105q6 66 6 98v14q-4 -54 -29 -105
q-46 -97 -144 -97h-12q-118 6 -182 151q-55 124 -56 272q-2 239 -27 311q31 -26 106 -30z" />
    <glyph glyph-name="v" unicode="v" horiz-adv-x="654" 
d="M504 405q-44 -230 -44 -347q0 -58 11 -88q-68 28 -180.5 25t-156.5 -19q15 45 15 121q0 107 -30 276q-42 174 -117 331q46 -25 118 -32q93 22 139 63q-20 -41 -20 -125t18.5 -249.5t48.5 -254.5q22 24 59 269q17 106 17 189q0 101 -25 170q57 -28 174 -35q40 -7 70 -7
q41 0 62 13q-95 -109 -159 -300z" />
    <glyph glyph-name="w" unicode="w" horiz-adv-x="853" 
d="M54 -52q33 185 33 338q0 43 -3 84q-13 155 -60 355q3 -6 47 -14.5t94 -3.5t127 28q-60 -102 -70 -180.5t-3 -191t12 -152t17 -107.5q62 205 93 343q19 87 19 169q0 48 -7 95q7 -15 64 -23.5t103 2.5q-4 -27 -4 -59q0 -79 25 -183q23 -148 72 -327q9 188 23 335q3 34 3 67
q0 111 -33 278q57 -29 133 -31t96 1q-60 -189 -84 -437q-4 -67 -4 -127q0 -141 22 -240q-5 13 -135 29q-61 8 -99 8q-33 0 -50 -6q10 71 10 135q0 40 -4 77q-12 159 -43 259q-40 -130 -60 -269q-12 -86 -12 -148q0 -44 6 -75q-20 13 -141.5 9t-186.5 -38z" />
    <glyph glyph-name="x" unicode="x" horiz-adv-x="731" 
d="M411 725q55 -31 142 -31q66 0 151 18q-143 -121 -266 -307q73 -259 320 -533q-36 26 -107 26q-11 0 -24 -1q-89 -5 -109 -26q-73 289 -171 403q-84 -163 -84 -246q0 -26 8 -44q-38 13 -106 13q-14 0 -29 -1q-88 -3 -150 -29q168 208 275 436q-117 218 -271 326
q76 -4 133 -8q99 8 143 25q-14 -22 -14 -62v-10q2 -92 90 -185q86 75 86 164v4q-2 46 -17 68z" />
    <glyph glyph-name="y" unicode="y" horiz-adv-x="699" 
d="M133 695q19 -1 36 -1q83 0 126 24q-51 -96 -64 -220q-23 -160 -23 -242q0 -20 1 -35q14 -153 125 -156h4q121 0 152 188q6 39 6 89q0 96 -23 232q-9 129 -40 168q54 -11 128 -11q45 0 86 9q40 7 38 7q-14 -38 -14 -149q0 -94 10 -240v-9q0 -337 -71 -551
q-74 -196 -222 -255q-37 -14 -140 -39q-99 -24 -159 -49q11 46 11 86q0 41 -11 77q-38 104 -73 143q71 -20 153 -20q76 0 160 17q228 61 228 370q0 43 -4 90q-5 -58 -33 -117q-54 -107 -168 -112h-19q-170 0 -242 111q-32 48 -32 259v82q0 232 -50 275q49 -17 124 -21z" />
    <glyph glyph-name="z" unicode="z" horiz-adv-x="585" 
d="M568 732q-277 -311 -277 -562v-2h7q121 0 199 72q44 37 56 69q-33 -111 -22 -211.5t36 -157.5q-54 56 -260 60.5t-276 -24.5q80 97 175 333q64 134 84 204q6 22 6 32q0 6 -2 7q-126 38 -239 -62q10 29 10 67q0 39 -11 87q-10 94 -41 126q80 -52 250 -61q175 12 305 23z
" />
    <glyph glyph-name="braceleft" unicode="{" horiz-adv-x="574" 
d="M530 1191q0 -46 10 -93q-78 32 -149 34q-112 -6 -112 -120q0 -29 7 -65q25 -108 25 -178q0 -18 -2 -34q-11 -104 -91 -171q31 -13 57 -51q36 -51 36 -137q0 -39 -8 -86q-25 -105 -25 -177q0 -59 17 -96q42 -98 179 -98q31 0 68 5q-20 -62 -20 -106t20 -70q-23 -2 -46 -2
q-92 0 -180 36q-183 86 -183 304q0 41 6 87q15 81 15 147q0 123 -52 192q-39 52 -85 58q52 4 94 50q52 58 52 163q0 62 -18 141q-14 60 -14 111q0 280 419 280q-20 -61 -20 -124z" />
    <glyph glyph-name="bar" unicode="|" horiz-adv-x="308" 
d="M94 636q0 574 -44 831q35 -10 81 -13h15q79 0 124 38q-34 -179 -54 -501q-14 -225 -14 -459q0 -432 48 -892q-23 20 -60 33q-30 11 -58 11q-42 0 -82 -23q44 228 44 975z" />
    <glyph glyph-name="braceright" unicode="}" horiz-adv-x="574" 
d="M435 1036q0 -51 -14 -112q-18 -78 -18 -140q0 -106 53 -164q42 -46 94 -50q-46 -6 -86 -58q-51 -68 -51 -190q0 -67 15 -149q6 -45 6 -85q0 -220 -183 -306q-88 -36 -180 -36q-23 0 -46 2q21 26 21 70t-21 106q37 -5 68 -5q137 0 178 98q17 37 17 96q0 72 -25 177
q-7 45 -7 84q0 87 36 139q26 38 56 51q-80 67 -90 171q-2 16 -2 34q0 70 25 178q7 36 7 65q0 114 -113 120q-70 -2 -148 -34q10 47 10 93q0 63 -20 124q418 0 418 -279z" />
    <glyph glyph-name="asciitilde" unicode="~" horiz-adv-x="720" 
d="M46 434q62 60 123 86q41 17 77 17q16 0 31 -3q49 -11 78 -58q31 -51 34 -135q3 -73 38 -73h5q32 6 86 66q62 68 123 165q-1 -17 -1 -35q0 -69 18 -144q12 -47 24 -77q-22 9 -53 9q-64 0 -113 -44q-63 -55 -104 -63q-8 -2 -15 -2q-28 0 -47 26q-20 27 -34 87
q-9 40 -21 128q-4 32 -26 32q-6 0 -14 -3q-28 -10 -74 -54q-52 -50 -102 -116q4 26 4 51q0 47 -14 90q-11 32 -23 50z" />
    <glyph glyph-name="exclamdown" unicode="&#xa1;" horiz-adv-x="291" 
d="M264 -51q-25 17 -128 19h-9q-58 0 -88 -12q-16 -8 -19 -14q72 220 72 536q0 43 -1 87q-5 187 -26 325q44 -20 84 -20q17 0 34 4q28 6 41 18q-28 -237 -28 -375q0 -25 1 -47q6 -143 67 -521zM63 957q-15 17 -15 40q0 7 1 15q5 32 31 55q25 25 60 27h5q32 0 54 -26
q23 -25 25 -60v-8q0 -31 -19 -51q-21 -23 -60 -23q-6 0 -12 1q-48 3 -70 30z" />
    <glyph glyph-name="cent" unicode="&#xa2;" horiz-adv-x="571" 
d="M271 726h-3q-20 0 -35 -30q-14 -29 -20 -80q-4 -36 -4 -71q0 -70 16 -133q55 137 87 282q-19 30 -41 32zM514 469q-14 -7 -32 -41q-31 -57 -37 -66q-58 -87 -156 -87q-16 0 -34 2q-18 -66 -29 -109q-33 8 -63 8q-29 0 -57 -7q38 64 70 131q-69 37 -99 118q-19 51 -19 108
q0 26 4 52q12 86 57 146q48 65 117 73q22 3 42 3q28 0 53 -5q9 53 11 85q43 -16 82 -16q29 0 56 8q-28 -40 -60 -111q42 -28 68 -74q13 -23 17 -41q-22 3 -43 3q-53 0 -96 -19q-47 -128 -96 -298q7 -4 16 -4h3q52 5 64 93q4 27 4 53q0 18 -2 35q62 -40 159 -40z" />
    <glyph glyph-name="sterling" unicode="&#xa3;" horiz-adv-x="1014" 
 />
    <glyph glyph-name="currency" unicode="&#xa4;" horiz-adv-x="1128" 
d="M712 490q-121 231 -35 462v2q88 -31 153 -113q62 -76 93 -181q67 -225 -22 -407q-118 102 -189 237zM670 362q45 19 161 -207q-68 -67 -166 -87q-38 277 5 294zM530 696q-3 -219 -119 -334q-93 -91 -149 -137q-56 89 -66 208q-11 114 22 227q34 114 103 193
q74 86 173 110q37 -136 36 -267zM331 145q127 187 192 204q42 11 38 -110q-3 -73 -21 -177q-124 11 -209 83zM238 917q-111 -99 -166 -237q-53 -135 -38 -268q15 -139 100 -238q103 -120 241 -174q128 -50 262 -37q130 14 236 83q108 70 162 182q71 148 65 315
q-6 160 -80 291q-76 135 -202 196q-136 67 -300 30q-160 -37 -280 -143z" />
    <glyph glyph-name="yen" unicode="&#xa5;" horiz-adv-x="270" 
 />
    <glyph glyph-name="brokenbar" unicode="&#xa6;" horiz-adv-x="1014" 
 />
    <glyph glyph-name="section" unicode="&#xa7;" horiz-adv-x="600" 
d="M384 506q61 -74 22 -109q-43 -37 -128 35q-27 31 -48 60q-43 62 -28 101q6 18 23 21q18 3 42 -10q66 -37 117 -98zM564 459q-17 47 -79 106q-233 223 -245 239q-33 48 -27 80q6 30 43 33q91 8 213 -125q0 36 12 79q23 87 78 124q-98 48 -205 70q-212 45 -254 -82t65 -259
q-66 -10 -111 -78q-59 -89 -2 -183q41 -67 157 -155q161 -121 167 -125q66 -62 26 -98q-58 -51 -191 87q-66 69 -121 148q9 -107 -59 -198q90 -87 197 -142q216 -111 307 46q38 65 16 126q-18 48 -82 110q48 20 80 76q37 62 15 121z" />
    <glyph glyph-name="dieresis" unicode="&#xa8;" horiz-adv-x="494" 
d="M62 902q-17 -22 -15 -54q2 -31 21 -53q21 -25 54 -25q32 0 53 25q19 22 20 53q1 33 -18 54q-21 25 -60 25q-36 0 -55 -25zM307 901q-20 -23 -19 -57q0 -33 20 -57q22 -26 55 -26q34 0 56 26q21 23 24 57q2 33 -15 57q-19 25 -57 25q-41 0 -64 -25z" />
    <glyph glyph-name="copyright" unicode="&#xa9;" horiz-adv-x="854" 
d="M534 665q-27 -18 -35 -45q-2 26 -14 52q-23 52 -68 48q-25 -2 -38 -59q-12 -50 -10 -123q2 -72 16 -123q16 -55 41 -57q43 -3 65 65q11 34 13 68q10 -17 48 -44q39 -27 57 -22q-10 -32 -42 -61q-64 -59 -168 -46q-59 7 -96 65q-34 53 -40 130q-7 75 16 139q24 68 72 94
q83 44 162 -4q40 -24 63 -56q-15 -2 -42 -21zM233 327q-86 98 -64 219q26 142 94 216q70 77 178 77q107 0 170 -79q61 -78 71 -222q8 -125 -68 -216q-76 -90 -186 -90q-113 0 -195 95zM213 792q-71 -63 -107 -151q-34 -85 -25 -170q10 -89 65 -152q67 -76 156 -111
q82 -32 169 -23q84 8 152 52q69 45 104 116q46 95 43 201q-4 102 -52 186q-50 85 -131 125q-88 42 -193 18q-103 -23 -181 -91z" />
    <glyph glyph-name="ordfeminine" unicode="&#xaa;" horiz-adv-x="417" 
d="M171 579h1q28 0 48 36q18 35 20 83q1 7 1 14q0 40 -14 68q-18 35 -49 35h-3q-20 -2 -36 -38q-15 -34 -18 -81v-16q0 -36 9 -63q13 -36 41 -38zM20 978q5 -1 11 -1q29 0 74 7q62 10 91 10h12q101 0 150 -100q25 -79 26 -187q-2 -23 -2 -44q0 -63 18 -100l9 -40
q-7 10 -71 17q-33 5 -52 5q-18 0 -22 -4q26 61 26 118v5q-3 -38 -20 -69q-34 -56 -102 -56h-9q-79 3 -113 54q-22 35 -22 81q0 14 1 28q8 63 46 105q46 45 94 45h7q68 -4 98 -53q16 -26 17 -49q1 11 1 21q0 23 -4 47q-11 67 -54 96q-15 10 -34 10q-32 0 -73 -33
q-39 -18 -63 -49v4q0 36 -11 80q-11 41 -29 52zM60 508q60 -7 132 -7q73 0 139 7q32 3 51 7q-4 -17 -5 -41q-1 -7 -1 -13q0 -39 13 -67q-10 4 -27 10q-35 11 -76 17q-38 4 -77 4q-21 0 -43 -1q-77 -6 -156 -30q6 17 9 40q3 17 3 33q0 27 -7 48q15 -4 45 -7z" />
    <glyph glyph-name="guillemotleft" unicode="&#xab;" horiz-adv-x="765" 
d="M433 627q-7 1 -16 1q-21 0 -51 -8q-93 -24 -193 -134q15 -37 53 -77q77 -82 195 -104q-7 -17 -20 -62q-16 -85 -16 -211v-10q-19 61 -72 152q-106 183 -274 336q79 56 158 125q173 139 179 209q21 -136 57 -217zM736 599q-7 1 -16 1q-20 0 -51 -8q-106 -24 -216 -124
q15 -37 63 -67q77 -82 195 -104q-7 -17 -20 -62q-15 -85 -15 -211v-10q-20 61 -73 152q-105 183 -268 282q93 110 212 214t126 174q21 -146 63 -237z" />
    <glyph glyph-name="logicalnot" unicode="&#xac;" horiz-adv-x="1014" 
 />
    <glyph glyph-name="registered" unicode="&#xae;" horiz-adv-x="749" 
d="M408 662q11 -27 13 -68t-6 -72q-9 -34 -27 -39q-22 -6 -35 25q-12 28 -13 74q-1 44 8 76q11 36 29 35q19 0 31 -31zM458 491q65 117 10 192q-22 29 -55 41q-32 11 -58 1q-61 -25 -122 -5q11 -4 23 -19q24 -29 31 -87q12 -101 -18 -252q58 20 97 -3q-19 59 -25 110
q26 -14 48 -45q27 -36 31 -73q48 20 126 -5q-60 35 -129 110q26 8 41 35zM188 323q-79 93 -57 215q55 301 259 301q105 0 159 -79q51 -74 61 -222q8 -128 -58 -216q-67 -90 -175 -90q-112 0 -189 91zM162 792q-71 -63 -107 -151q-34 -85 -25 -170q10 -89 65 -152
q67 -76 156 -111q82 -32 169 -23q84 8 152 52q69 45 104 116q46 95 43 201q-4 102 -52 186q-50 85 -131 125q-88 42 -193 18q-103 -23 -181 -91z" />
    <glyph glyph-name="macron" unicode="&#xaf;" horiz-adv-x="670" 
 />
    <glyph glyph-name="degree" unicode="&#xb0;" horiz-adv-x="278" 
d="M113 876q-16 24 -12 54q5 34 17 52q12 19 31 19t30 -19t13 -54q1 -31 -12 -53q-14 -22 -33 -22q-20 0 -34 23zM79 1006q-23 -21 -35 -49q-11 -28 -8 -56t21 -49q22 -25 51 -36q26 -10 54 -7q28 2 50 17q22 14 34 37q15 31 13 65q-1 34 -16 61q-16 27 -43 40q-28 14 -63 6
q-33 -7 -58 -29z" />
    <glyph glyph-name="plusminus" unicode="&#xb1;" horiz-adv-x="579" 
d="M548 487q-96 11 -209 14q9 -112 33 -208q-16 12 -44 20q-17 3 -36 3q-39 0 -81 -18q12 87 13 204q-90 -2 -184 -17q12 28 12 56q0 39 -23 77q96 -23 194 -29q-8 124 -55 248q71 -23 123 -23q39 0 67 14q-22 -116 -22 -219v-22q125 6 199 47q-8 -28 -11 -61q2 -64 24 -86z
M242 235q65 -5 118 -5q133 0 188 37q-3 -13 -4 -41q-1 -14 -1 -27q0 -52 8 -108q-42 13 -130 20q-58 5 -122 5q-128 0 -278 -19q6 18 8 46q3 24 3 48q0 34 -5 67q99 -21 215 -23z" />
    <glyph glyph-name="twosuperior" unicode="&#xb2;" horiz-adv-x="286" 
d="M38 842q-14 48 -14 89q0 60 30 104q22 32 53 44q17 7 37 7q15 0 33 -4q48 -15 65 -41q13 -19 13 -49q0 -13 -2 -27q-12 -77 -140 -335q21 4 48 16q55 23 84 61q-7 -59 -7 -96q0 -33 5 -48q-64 14 -128 14q-48 0 -96 -8q50 106 95 217q66 155 66 209q0 26 -16 27h-3
q-37 0 -40 -75q-1 -11 -1 -22q0 -24 3 -49q-16 -1 -39 -9q-23 -9 -46 -25z" />
    <glyph glyph-name="threesuperior" unicode="&#xb3;" horiz-adv-x="263" 
d="M121 1062q11 1 22 1q60 0 82 -47q12 -25 12 -55q0 -26 -9 -57q-13 -44 -52 -77q19 -12 35 -37q26 -37 26 -82q0 -15 -3 -31q-16 -86 -90 -86q-14 0 -31 3q-52 10 -100 41q19 9 31 38q5 15 7 29q32 -25 64 -36q18 -7 31 -7q34 0 36 46v7q0 63 -62 68q-6 1 -13 1
q-26 0 -53 -9q3 11 3 22q0 24 -15 48q7 -1 14 -1q35 0 62 21q27 22 40 59q8 23 8 43q0 10 -2 19q-6 28 -26 28q-35 0 -40 -55q-1 -12 -1 -23q0 -17 2 -33q-16 10 -40 10q-17 0 -36 -5q-1 12 -1 23q0 47 19 82q27 45 80 52z" />
    <glyph glyph-name="acute" unicode="&#xb4;" horiz-adv-x="402" 
d="M167 923q-91 -59 -140 -75q18 -8 38 -23q39 -49 46 -79q28 26 74 57q91 61 180 81q-23 11 -48 29q-52 65 -68 96q-36 -31 -82 -86z" />
    <glyph glyph-name="mu" unicode="&#xb5;" horiz-adv-x="1180" 
 />
    <glyph glyph-name="paragraph" unicode="&#xb6;" horiz-adv-x="1024" 
 />
    <glyph glyph-name="periodcentered" unicode="&#xb7;" horiz-adv-x="255" 
d="M62 882q-17 -22 -15 -54q2 -31 21 -53q21 -25 54 -25q32 0 53 25q19 22 20 53q1 33 -18 54q-21 25 -60 25q-36 0 -55 -25z" />
    <glyph glyph-name="periodcentered" unicode="&#x2219;" horiz-adv-x="255" 
d="M62 882q-17 -22 -15 -54q2 -31 21 -53q21 -25 54 -25q32 0 53 25q19 22 20 53q1 33 -18 54q-21 25 -60 25q-36 0 -55 -25z" />
    <glyph glyph-name="cedilla" unicode="&#xb8;" horiz-adv-x="278" 
d="M59 15h58q2 0 2 -2q-7 -18 -7 -61v-12q0 -11 2 -19q19 5 45 5q68 0 87 -51q5 -16 5 -38v-8q0 -84 -63 -112q-29 -12 -66 -12q-53 0 -122 23v3q29 21 29 62v5q-1 15 -1 22q52 -31 86 -31h7q49 0 62 48q0 4 1 8q0 36 -41 43h-5q-29 0 -61 -27h-1v1q3 22 3 38v2
q0 45 -22 112z" />
    <glyph glyph-name="onesuperior" unicode="&#xb9;" horiz-adv-x="201" 
d="M108 1084q22 -6 39 -6q22 0 37 10q-11 -113 -11 -225q0 -145 18 -287q-25 16 -57 16h-9q-19 -1 -32 -7q26 223 26 341q0 48 -4 78q-16 -49 -47 -97q-2 36 -27 73q-13 19 -25 30q53 17 78 48q13 14 14 26z" />
    <glyph glyph-name="ordmasculine" unicode="&#xba;" horiz-adv-x="451" 
d="M283 701q23 54 27 127q1 12 1 24q0 58 -16 95q-22 54 -65 54h-2q-42 -2 -65 -60q-20 -44 -20 -115v-5q0 -72 20 -123q23 -56 58 -56h1q36 1 61 59zM361 981q56 -66 67 -157q2 -21 2 -39q0 -72 -37 -119q-50 -63 -151 -63q-13 0 -26 2q-121 8 -172 83q-30 45 -30 105
q0 25 5 53q17 83 77 148q60 60 129 60h5q72 -3 131 -73zM82 572q60 -6 133 -6t138 6q33 3 51 6q-4 -14 -5 -34v-11q0 -33 12 -57q-9 4 -27 9q-35 9 -76 14q-37 4 -76 4q-22 0 -43 -1q-77 -5 -156 -26q6 14 9 34q2 15 2 28q0 22 -7 40q15 -3 45 -6z" />
    <glyph glyph-name="guillemotright" unicode="&#xbb;" horiz-adv-x="765" 
d="M399 844q6 -70 179 -209q79 -69 158 -125q-168 -153 -274 -336q-53 -91 -72 -152v10q0 126 -16 211q-13 45 -20 62q118 22 195 104q38 40 53 77q-100 110 -193 134q-30 8 -51 8q-9 0 -16 -1q36 81 57 217zM102 836q7 -70 126 -174t212 -214q-163 -99 -268 -282
q-53 -91 -73 -152v10q0 126 -15 211q-13 45 -20 62q118 22 195 104q48 30 63 67q-110 100 -216 124q-31 8 -51 8q-9 0 -16 -1q42 91 63 237z" />
    <glyph glyph-name="onequarter" unicode="&#xbc;" horiz-adv-x="1708" 
 />
    <glyph glyph-name="onehalf" unicode="&#xbd;" horiz-adv-x="829" 
 />
    <glyph glyph-name="threequarters" unicode="&#xbe;" horiz-adv-x="1708" 
 />
    <glyph glyph-name="questiondown" unicode="&#xbf;" horiz-adv-x="561" 
d="M319 996q15 -16 15 -38q0 -6 -1 -13q-6 -28 -30 -50q-26 -22 -61 -24h-5q-31 0 -53 23t-25 55v6q0 29 19 48q21 21 62 21h10q48 -4 69 -28zM18 189v6q0 164 69 289.5t79 223.5q0 16 -1 32q-7 61 -24 108q42 -31 84 -34h6q39 0 103 22q-34 -202 -95 -319
q-73 -142 -73 -290v-23q2 -66 20 -108q18 -43 45 -46h8q81 0 84 184v11q0 92 -15 185q52 -60 145 -69q16 -1 30 -1q29 0 53 5q-37 -34 -46 -84q-3 -18 -6 -57q-3 -50 -6 -76q-14 -130 -93 -178q-43 -26 -102 -26q-43 0 -95 14q-167 44 -170 231z" />
    <glyph glyph-name="Agrave" unicode="&#xc0;" horiz-adv-x="732" 
d="M449 370q-15 81 -47 230t-55 346q-25 -93 -54 -251.5t-44 -304.5zM738 -25q-32 3 -63 3q-105 0 -190 -37q14 35 14 100q3 32 3 62q0 89 -25 157l-247 19q-17 -64 -17 -122q0 -88 38 -164q-58 12 -107 12q-82 0 -140 -33q187 735 187 1014q0 59 -8 98q85 -27 160 -27
q71 0 132 24q9 -149 53 -378q60 -435 210 -728zM232 1312l5 3q41 29 62 86q5 -10 11 -20q12 -18 32 -36q63 -58 167 -90l-4 -1q-8 -7 -20 -20q-27 -32 -33 -144q-10 21 -21 39q-20 27 -43 46q-102 107 -197 119q19 5 41 18z" />
    <glyph glyph-name="Aacute" unicode="&#xc1;" horiz-adv-x="732" 
d="M449 370q-15 81 -47 230t-55 346q-25 -93 -54 -251.5t-44 -304.5zM738 -25q-32 3 -63 3q-105 0 -190 -37q14 35 14 100q3 32 3 62q0 89 -25 157l-247 19q-17 -64 -17 -122q0 -88 38 -164q-58 12 -107 12q-82 0 -140 -33q187 735 187 1014q0 59 -8 98q85 -27 160 -27
q71 0 132 24q9 -149 53 -378q60 -435 210 -728zM288 1284q-91 -49 -140 -65q18 -8 38 -23q39 -49 46 -79q28 26 74 57q91 61 180 81q-23 11 -48 29q-52 35 -68 66q-36 -31 -82 -66z" />
    <glyph glyph-name="Acircumflex" unicode="&#xc2;" horiz-adv-x="732" 
d="M449 370q-15 81 -47 230t-55 346q-25 -93 -54 -251.5t-44 -304.5zM738 -25q-32 3 -63 3q-105 0 -190 -37q14 35 14 100q3 32 3 62q0 89 -25 157l-247 19q-17 -64 -17 -122q0 -88 38 -164q-58 12 -107 12q-82 0 -140 -33q187 735 187 1014q0 59 -8 98q85 -27 160 -27
q71 0 132 24q9 -149 53 -378q60 -435 210 -728zM296 1137q-7 7 -5 24q3 32 44 80q17 -12 32 -31q31 -40 23 -82q67 12 118 3q-129 125 -161 231q-78 -137 -184 -231q74 25 133 6z" />
    <glyph glyph-name="Atilde" unicode="&#xc3;" horiz-adv-x="732" 
d="M449 370q-15 81 -47 230t-55 346q-25 -93 -54 -251.5t-44 -304.5zM738 -25q-32 3 -63 3q-105 0 -190 -37q14 35 14 100q3 32 3 62q0 89 -25 157l-247 19q-17 -64 -17 -122q0 -88 38 -164q-58 12 -107 12q-82 0 -140 -33q187 735 187 1014q0 59 -8 98q85 -27 160 -27
q71 0 132 24q9 -149 53 -378q60 -435 210 -728zM134 1206q50 -16 73 -62q-3 43 6 80q18 74 78 42q1 -1 57 -81q43 -62 113 -56q61 6 107 79q23 36 33 72q-18 -6 -46 -5q-55 2 -99 34q-8 -39 -19 -70q-23 -60 -46 -13q-48 102 -126 119q-97 22 -175 -134q20 2 44 -5z" />
    <glyph glyph-name="Adieresis" unicode="&#xc4;" horiz-adv-x="732" 
d="M449 370q-15 81 -47 230t-55 346q-25 -93 -54 -251.5t-44 -304.5zM738 -25q-32 3 -63 3q-105 0 -190 -37q14 35 14 100q3 32 3 62q0 89 -25 157l-247 19q-17 -64 -17 -122q0 -88 38 -164q-58 12 -107 12q-82 0 -140 -33q187 735 187 1014q0 59 -8 98q85 -27 160 -27
q71 0 132 24q9 -149 53 -378q60 -435 210 -728zM158 1282q-17 -22 -15 -54q2 -31 21 -53q21 -25 54 -25q32 0 53 25q19 22 20 53q1 33 -18 54q-21 25 -60 25q-36 0 -55 -25zM403 1281q-20 -23 -19 -57q0 -33 20 -57q22 -26 55 -26q34 0 56 26q21 23 24 57q2 33 -15 57
q-19 25 -57 25q-41 0 -64 -25z" />
    <glyph glyph-name="Aring" unicode="&#xc5;" horiz-adv-x="732" 
d="M449 370q-15 81 -47 230t-55 346q-25 -93 -54 -251.5t-44 -304.5zM738 -25q-32 3 -63 3q-105 0 -190 -37q14 35 14 100q3 32 3 62q0 89 -25 157l-247 19q-17 -64 -17 -122q0 -88 38 -164q-58 12 -107 12q-82 0 -140 -33q187 735 187 1014q0 59 -8 98q85 -27 160 -27
q71 0 132 24q9 -149 53 -378q60 -435 210 -728zM301 1175q-14 19 -15 46t14 46q17 21 48 21q27 0 42 -21q12 -19 10 -46t-17 -46q-16 -21 -41 -21t-41 21zM247 1290q-30 -32 -27 -78q3 -47 37 -79q36 -36 93 -36q56 0 92 36q33 32 35 79q1 46 -31 78q-37 36 -104 36
q-62 0 -95 -36z" />
    <glyph glyph-name="AE" unicode="&#xc6;" horiz-adv-x="1089" 
d="M449 370q-15 81 -47 230t-55 346q-25 -93 -54 -251.5t-44 -304.5zM477 260l-247 19q-17 -64 -17 -122q0 -88 38 -164q-58 12 -107 12q-82 0 -140 -33q187 735 187 1014q0 59 -8 98q85 -27 160 -27q71 0 132 24q6 -96 26 -224l4 10q77 140 179 188q62 27 117 27
q77 0 140 -52q97 -82 148 -262h-9q-29 0 -63 -10q-81 -24 -129 -92q-65 194 -132 219q-10 4 -20 4q-42 0 -79 -76q-39 -79 -52 -191q-4 -34 -4 -60q0 -49 16 -65q24 -23 86 -24h3q78 0 152 51q-28 -51 -28 -110q0 -32 8 -67q-32 17 -73 27q-31 8 -57 8q-39 0 -63 -20
q-8 -8 -8 -30q0 -9 1 -20q5 -41 24 -81q49 -100 130 -100q7 0 15 1q48 6 78 117q15 55 18 111q25 -21 59 -39q48 -25 92 -25q19 0 37 5q-20 -81 -66 -164q-314 -447 -548 123z" />
    <glyph glyph-name="Ccedilla" unicode="&#xc7;" horiz-adv-x="627" 
d="M249 -7q-47 14 -86 46q-128 106 -148 378q-5 66 -5 125q0 220 67 358q78 158 220 169q12 1 24 1q124 0 207 -104q57 -56 84 -146q-89 -10 -149 -61q-30 -25 -41 -48q-2 60 -19 119q-15 151 -91 152h-1q-65 0 -98 -143q-22 -103 -22 -245q0 -36 1 -74q6 -187 42 -321
q38 -146 102 -146q72 0 72 122q0 16 -1 35q-11 73 -30 136q25 -24 61 -46q76 -31 127 -31q17 0 31 3q-4 -50 -25 -144q-44 -110 -144 -134q-51 -13 -96 -13q-16 0 -32 2q-1 -14 -1 -31v-12q0 -11 2 -19q19 5 45 5q67 0 86 -51q5 -16 5 -38v-8q0 -84 -62 -112
q-29 -12 -66 -12q-53 0 -122 23v3q28 21 28 62v5q-1 15 -1 22q52 -31 87 -31h7q48 0 62 48q0 4 1 8q0 36 -42 43h-5q-29 0 -60 -27h-1v1q3 22 3 38v2q0 38 -16 91z" />
    <glyph glyph-name="Egrave" unicode="&#xc8;" horiz-adv-x="667" 
d="M450 666q-65 194 -132 219q-10 4 -20 4q-42 0 -79 -76q-39 -79 -52 -191q-4 -34 -4 -60q0 -49 16 -65q24 -23 86 -24h3q78 0 152 51q-28 -51 -28 -110q0 -32 8 -67q-32 17 -73 27q-31 8 -57 8q-39 0 -63 -20q-8 -8 -8 -30q0 -9 1 -20q5 -41 24 -81q49 -100 130 -100
q7 0 15 1q48 6 78 117q15 55 18 111q25 -21 59 -39q48 -25 92 -25q19 0 37 5q-20 -81 -66 -164q-84 -163 -215 -165h-5q-150 0 -231 111q-122 156 -127 489q5 166 58 295q77 140 179 188q62 27 117 27q77 0 140 -52q97 -82 148 -262h-9q-29 0 -63 -10q-81 -24 -129 -92z
M213 1314l5 3q41 29 62 86q5 -10 11 -20q12 -18 32 -36q63 -58 167 -90l-4 -1q-8 -7 -20 -20q-27 -32 -33 -144q-10 21 -21 39q-20 27 -43 46q-102 107 -197 119q19 5 41 18z" />
    <glyph glyph-name="Eacute" unicode="&#xc9;" horiz-adv-x="667" 
d="M450 666q-65 194 -132 219q-10 4 -20 4q-42 0 -79 -76q-39 -79 -52 -191q-4 -34 -4 -60q0 -49 16 -65q24 -23 86 -24h3q78 0 152 51q-28 -51 -28 -110q0 -32 8 -67q-32 17 -73 27q-31 8 -57 8q-39 0 -63 -20q-8 -8 -8 -30q0 -9 1 -20q5 -41 24 -81q49 -100 130 -100
q7 0 15 1q48 6 78 117q15 55 18 111q25 -21 59 -39q48 -25 92 -25q19 0 37 5q-20 -81 -66 -164q-84 -163 -215 -165h-5q-150 0 -231 111q-122 156 -127 489q5 166 58 295q77 140 179 188q62 27 117 27q77 0 140 -52q97 -82 148 -262h-9q-29 0 -63 -10q-81 -24 -129 -92z
M263 1254q-91 -49 -140 -65q18 -8 38 -23q39 -49 46 -79q28 26 74 57q91 61 180 81q-23 11 -48 29q-52 35 -68 66q-36 -31 -82 -66z" />
    <glyph glyph-name="Ecircumflex" unicode="&#xca;" horiz-adv-x="667" 
d="M450 666q-65 194 -132 219q-10 4 -20 4q-42 0 -79 -76q-39 -79 -52 -191q-4 -34 -4 -60q0 -49 16 -65q24 -23 86 -24h3q78 0 152 51q-28 -51 -28 -110q0 -32 8 -67q-32 17 -73 27q-31 8 -57 8q-39 0 -63 -20q-8 -8 -8 -30q0 -9 1 -20q5 -41 24 -81q49 -100 130 -100
q7 0 15 1q48 6 78 117q15 55 18 111q25 -21 59 -39q48 -25 92 -25q19 0 37 5q-20 -81 -66 -164q-84 -163 -215 -165h-5q-150 0 -231 111q-122 156 -127 489q5 166 58 295q77 140 179 188q62 27 117 27q77 0 140 -52q97 -82 148 -262h-9q-29 0 -63 -10q-81 -24 -129 -92z
M307 1134q-7 7 -5 24q3 32 44 80q17 -12 32 -31q31 -40 23 -82q67 12 118 3q-129 125 -161 231q-78 -137 -184 -231q74 25 133 6z" />
    <glyph glyph-name="Edieresis" unicode="&#xcb;" horiz-adv-x="667" 
d="M450 666q-65 194 -132 219q-10 4 -20 4q-42 0 -79 -76q-39 -79 -52 -191q-4 -34 -4 -60q0 -49 16 -65q24 -23 86 -24h3q78 0 152 51q-28 -51 -28 -110q0 -32 8 -67q-32 17 -73 27q-31 8 -57 8q-39 0 -63 -20q-8 -8 -8 -30q0 -9 1 -20q5 -41 24 -81q49 -100 130 -100
q7 0 15 1q48 6 78 117q15 55 18 111q25 -21 59 -39q48 -25 92 -25q19 0 37 5q-20 -81 -66 -164q-84 -163 -215 -165h-5q-150 0 -231 111q-122 156 -127 489q5 166 58 295q77 140 179 188q62 27 117 27q77 0 140 -52q97 -82 148 -262h-9q-29 0 -63 -10q-81 -24 -129 -92z
M180 1250q-17 -22 -15 -54q2 -31 21 -53q21 -25 54 -25q32 0 53 25q19 22 20 53q1 33 -18 54q-21 25 -60 25q-36 0 -55 -25zM425 1249q-20 -23 -19 -57q0 -33 20 -57q22 -26 55 -26q34 0 56 26q21 23 24 57q2 33 -15 57q-19 25 -57 25q-41 0 -64 -25z" />
    <glyph glyph-name="Igrave" unicode="&#xcc;" horiz-adv-x="305" 
d="M26 1134q78 -55 147 -55q11 0 23 2q64 11 104 23q-65 -247 -65 -548q0 -112 9 -231q21 -215 54 -381q-92 50 -200 60q-44 -10 -61 -30q33 253 33 529q0 193 -16 398q-4 142 -28 233zM40 1363l4 3q42 29 63 86q4 -10 11 -20q12 -18 32 -36q63 -58 167 -90l-4 -1
q-8 -7 -20 -20q-27 -32 -33 -144q-10 21 -22 39q-19 27 -42 46q-102 107 -197 119q18 5 41 18z" />
    <glyph glyph-name="Iacute" unicode="&#xcd;" horiz-adv-x="305" 
d="M14 1134q78 -55 147 -55q11 0 23 2q64 11 104 23q-65 -247 -65 -548q0 -112 9 -231q21 -215 54 -381q-92 50 -200 60q-44 -10 -61 -30q33 253 33 529q0 193 -16 398q-4 142 -28 233zM145 1323q-91 -49 -140 -65q18 -8 38 -23q39 -49 46 -79q28 26 74 57q91 61 180 81
q-23 11 -48 29q-52 35 -68 66q-36 -31 -82 -66z" />
    <glyph glyph-name="Icircumflex" unicode="&#xce;" horiz-adv-x="305" 
d="M14 1134q78 -55 147 -55q11 0 23 2q64 11 104 23q-65 -247 -65 -548q0 -112 9 -231q21 -215 54 -381q-92 50 -200 60q-44 -10 -61 -30q33 253 33 529q0 193 -16 398q-4 142 -28 233zM112 1174q-7 7 -5 24q3 32 44 80q17 -12 32 -31q31 -40 23 -82q67 12 118 3
q-129 125 -161 231q-78 -137 -184 -231q74 25 133 6z" />
    <glyph glyph-name="Idieresis" unicode="&#xcf;" horiz-adv-x="305" 
d="M24 1134q78 -55 147 -55q11 0 23 2q64 11 104 23q-65 -247 -65 -548q0 -112 9 -231q21 -215 54 -381q-92 50 -200 60q-44 -10 -61 -30q33 253 33 529q0 193 -16 398q-4 142 -28 233zM-16 1312q-17 -22 -15 -54q2 -31 21 -53q21 -25 54 -25q32 0 53 25q19 22 20 53
q1 33 -18 54q-21 25 -60 25q-36 0 -55 -25zM229 1311q-20 -23 -19 -57q0 -33 20 -57q22 -26 55 -26q34 0 56 26q21 23 24 57q2 33 -15 57q-19 25 -57 25q-41 0 -64 -25z" />
    <glyph glyph-name="Eth" unicode="&#xd0;" horiz-adv-x="635" 
d="M449 497q0 253 -85 373q-54 75 -114 76q-28 0 -36 -87q-5 -52 -5 -147q0 -94 5 -232q8 -258 14 -323q7 -84 24 -85h2q190 0 195 402v23zM503 910q115 -159 123 -350q1 -15 1 -31q0 -182 -99 -360q-89 -159 -296 -184q-51 -5 -95 -5q-70 0 -122 12q11 0 23 58
q23 282 23 496q0 232 -27 383q-6 91 -22 123q45 7 101 7q46 0 101 -5q202 -23 289 -144zM34 532q120 -12 265 -12q146 0 277 12q65 6 102 12q-8 -29 -10 -69q-1 -12 -1 -23q0 -66 25 -113q-19 7 -54 17q-70 19 -152 28q-75 8 -153 8q-43 0 -86 -2q-154 -10 -312 -51
q12 28 18 68q5 29 5 56q0 45 -14 81q30 -6 90 -12z" />
    <glyph glyph-name="Ntilde" unicode="&#xd1;" horiz-adv-x="658" 
d="M616 297q0 -241 40 -332q-66 20 -126 20q-59 0 -113 -20q36 271 43 529q5 84 5 152q0 298 -102 298q-15 0 -32 -7q-140 -66 -140 -462q0 -29 1 -60q1 -227 31 -438q-47 15 -99 15q-56 0 -117 -17q29 354 29 619q0 266 -29 444q34 -11 69 -11q54 0 112 25
q-39 -60 -64 -229q33 110 119 177q75 57 144 57q17 0 34 -4q81 -16 130 -110q70 -152 70 -445q0 -68 -4 -144q-1 -29 -1 -57zM105 1165q50 -16 73 -62q-3 43 6 80q18 74 78 42q1 -1 57 -81q43 -62 113 -56q61 6 107 79q23 36 33 72q-18 -6 -46 -5q-55 2 -99 34
q-8 -39 -19 -70q-23 -60 -46 -13q-48 102 -126 119q-97 22 -175 -134q20 2 44 -5z" />
    <glyph glyph-name="Ograve" unicode="&#xd2;" horiz-adv-x="630" 
d="M324 58h2q64 0 96 146q18 116 18 296v31q0 184 -29 314q-33 145 -87 145h-2q-39 -1 -67 -148q-27 -137 -32 -323q-1 -33 -1 -64q0 -150 20 -248q26 -147 82 -149zM308 1063q9 1 18 1q158 0 237 -168q59 -135 59 -322q0 -47 -4 -96q-6 -240 -66 -371q-70 -116 -210 -116
h-26q-133 0 -199 103q-73 113 -102 386q-3 48 -3 93q0 174 49 300q71 182 247 190zM206 1289l5 3q41 29 62 86q5 -10 11 -20q12 -18 32 -36q63 -58 167 -90l-4 -1q-8 -7 -20 -20q-27 -32 -33 -144q-10 21 -21 39q-20 27 -43 46q-102 107 -197 119q19 5 41 18z" />
    <glyph glyph-name="Oacute" unicode="&#xd3;" horiz-adv-x="630" 
d="M324 58h2q64 0 96 146q18 116 18 296v31q0 184 -29 314q-33 145 -87 145h-2q-39 -1 -67 -148q-27 -137 -32 -323q-1 -33 -1 -64q0 -150 20 -248q26 -147 82 -149zM308 1063q9 1 18 1q158 0 237 -168q59 -135 59 -322q0 -47 -4 -96q-6 -240 -66 -371q-70 -116 -210 -116
h-26q-133 0 -199 103q-73 113 -102 386q-3 48 -3 93q0 174 49 300q71 182 247 190zM280 1241q-91 -49 -140 -65q18 -8 38 -23q39 -49 46 -79q28 26 74 57q91 61 180 81q-23 11 -48 29q-52 35 -68 66q-36 -31 -82 -66z" />
    <glyph glyph-name="Ocircumflex" unicode="&#xd4;" horiz-adv-x="630" 
d="M324 58h2q64 0 96 146q18 116 18 296v31q0 184 -29 314q-33 145 -87 145h-2q-39 -1 -67 -148q-27 -137 -32 -323q-1 -33 -1 -64q0 -150 20 -248q26 -147 82 -149zM308 1063q9 1 18 1q158 0 237 -168q59 -135 59 -322q0 -47 -4 -96q-6 -240 -66 -371q-70 -116 -210 -116
h-26q-133 0 -199 103q-73 113 -102 386q-3 48 -3 93q0 174 49 300q71 182 247 190zM283 1102q-7 7 -5 24q3 32 44 80q17 -12 32 -31q31 -40 23 -82q67 12 118 3q-129 125 -161 231q-78 -137 -184 -231q74 25 133 6z" />
    <glyph glyph-name="Otilde" unicode="&#xd5;" horiz-adv-x="630" 
d="M324 58h2q64 0 96 146q18 116 18 296v31q0 184 -29 314q-33 145 -87 145h-2q-39 -1 -67 -148q-27 -137 -32 -323q-1 -33 -1 -64q0 -150 20 -248q26 -147 82 -149zM308 1063q9 1 18 1q158 0 237 -168q59 -135 59 -322q0 -47 -4 -96q-6 -240 -66 -371q-70 -116 -210 -116
h-26q-133 0 -199 103q-73 113 -102 386q-3 48 -3 93q0 174 49 300q71 182 247 190zM115 1163q50 -16 73 -62q-3 43 6 80q18 74 78 42q1 -1 57 -81q43 -62 113 -56q61 6 107 79q23 36 33 72q-18 -6 -46 -5q-55 2 -99 34q-8 -39 -19 -70q-23 -60 -46 -13q-48 102 -126 119
q-97 22 -175 -134q20 2 44 -5z" />
    <glyph glyph-name="Odieresis" unicode="&#xd6;" horiz-adv-x="630" 
d="M324 58h2q64 0 96 146q18 116 18 296v31q0 184 -29 314q-33 145 -87 145h-2q-39 -1 -67 -148q-27 -137 -32 -323q-1 -33 -1 -64q0 -150 20 -248q26 -147 82 -149zM308 1063q9 1 18 1q158 0 237 -168q59 -135 59 -322q0 -47 -4 -96q-6 -240 -66 -371q-70 -116 -210 -116
h-26q-133 0 -199 103q-73 113 -102 386q-3 48 -3 93q0 174 49 300q71 182 247 190zM148 1250q-17 -22 -15 -54q2 -31 21 -53q21 -25 54 -25q32 0 53 25q19 22 20 53q1 33 -18 54q-21 25 -60 25q-36 0 -55 -25zM393 1249q-20 -23 -19 -57q0 -33 20 -57q22 -26 55 -26
q34 0 56 26q21 23 24 57q2 33 -15 57q-19 25 -57 25q-41 0 -64 -25z" />
    <glyph glyph-name="multiply" unicode="&#xd7;" 
d="M428 144q-62 85 -141 178q-84 -89 -143 -179q-2 22 -16 49q-10 17 -24 32q-29 32 -74 51q78 54 173 140q-68 70 -149 135q32 11 54 31q31 29 45 75q52 -93 118 -176q94 97 160 226q33 -74 71 -115q29 -32 60 -44q-109 -67 -192 -143l-17 -16q97 -96 184 -126
q-28 -14 -57 -36q-50 -48 -52 -82z" />
    <glyph glyph-name="Oslash" unicode="&#xd8;" horiz-adv-x="630" 
d="M324 58h2q64 0 96 146q18 116 18 296v31q0 184 -29 314q-33 145 -87 145h-2q-39 -1 -67 -148q-27 -137 -32 -323q-1 -33 -1 -64q0 -150 20 -248q26 -147 82 -149zM308 1063q9 1 18 1q158 0 237 -168q59 -135 59 -322q0 -47 -4 -96q-6 -240 -66 -371q-70 -116 -210 -116
h-26q-133 0 -199 103q-73 113 -102 386q-3 48 -3 93q0 174 49 300q71 182 247 190zM245 -203q-38 25 -90 25q-45 0 -99 -18q93 239 173 563q156 595 156 876q0 25 -1 47q52 -22 111 -22q49 0 103 16q-238 -756 -353 -1487z" />
    <glyph glyph-name="Ugrave" unicode="&#xd9;" 
d="M30 853q0 179 -26 243q60 -20 114 -20q55 0 104 20q-34 -285 -41 -555q-1 -50 -1 -94q0 -372 92 -372q14 0 31 9q130 70 130 492v44q2 49 2 96q0 186 -25 361q46 -16 93 -16q51 0 103 19q-36 -321 -36 -589q0 -121 7 -232q13 -192 31 -281q-27 3 -58 3q-51 0 -112 -9
q36 63 56 246q-15 -66 -51 -137q-48 -81 -114 -93q-37 -13 -69 -13q-108 0 -169 140q-69 154 -69 445q0 69 4 145q4 82 4 148zM141 1261l5 3q41 29 62 86q5 -10 11 -20q12 -18 32 -36q63 -58 167 -90l-4 -1q-8 -7 -20 -20q-27 -32 -33 -144q-10 21 -21 39q-20 27 -43 46
q-102 107 -197 119q19 5 41 18z" />
    <glyph glyph-name="Uacute" unicode="&#xda;" 
d="M30 853q0 179 -26 243q60 -20 114 -20q55 0 104 20q-34 -285 -41 -555q-1 -50 -1 -94q0 -372 92 -372q14 0 31 9q130 70 130 492v44q2 49 2 96q0 186 -25 361q46 -16 93 -16q51 0 103 19q-36 -321 -36 -589q0 -121 7 -232q13 -192 31 -281q-27 3 -58 3q-51 0 -112 -9
q36 63 56 246q-15 -66 -51 -137q-48 -81 -114 -93q-37 -13 -69 -13q-108 0 -169 140q-69 154 -69 445q0 69 4 145q4 82 4 148zM310 1263q-91 -49 -140 -65q18 -8 38 -23q39 -49 46 -79q28 26 74 57q91 61 180 81q-23 11 -48 29q-52 35 -68 66q-36 -31 -82 -66z" />
    <glyph glyph-name="Ucircumflex" unicode="&#xdb;" 
d="M30 853q0 179 -26 243q60 -20 114 -20q55 0 104 20q-34 -285 -41 -555q-1 -50 -1 -94q0 -372 92 -372q14 0 31 9q130 70 130 492v44q2 49 2 96q0 186 -25 361q46 -16 93 -16q51 0 103 19q-36 -321 -36 -589q0 -121 7 -232q13 -192 31 -281q-27 3 -58 3q-51 0 -112 -9
q36 63 56 246q-15 -66 -51 -137q-48 -81 -114 -93q-37 -13 -69 -13q-108 0 -169 140q-69 154 -69 445q0 69 4 145q4 82 4 148zM277 1124q-7 7 -5 24q3 32 44 80q17 -12 32 -31q31 -40 23 -82q67 12 118 3q-129 125 -161 231q-78 -137 -184 -231q74 25 133 6z" />
    <glyph glyph-name="Udieresis" unicode="&#xdc;" 
d="M30 853q0 179 -26 243q60 -20 114 -20q55 0 104 20q-34 -285 -41 -555q-1 -50 -1 -94q0 -372 92 -372q14 0 31 9q130 70 130 492v44q2 49 2 96q0 186 -25 361q46 -16 93 -16q51 0 103 19q-36 -321 -36 -589q0 -121 7 -232q13 -192 31 -281q-27 3 -58 3q-51 0 -112 -9
q36 63 56 246q-15 -66 -51 -137q-48 -81 -114 -93q-37 -13 -69 -13q-108 0 -169 140q-69 154 -69 445q0 69 4 145q4 82 4 148zM132 1273q-17 -22 -15 -54q2 -31 21 -53q21 -25 54 -25q32 0 53 25q19 22 20 53q1 33 -18 54q-21 25 -60 25q-36 0 -55 -25zM377 1272
q-20 -23 -19 -57q0 -33 20 -57q22 -26 55 -26q34 0 56 26q21 23 24 57q2 33 -15 57q-19 25 -57 25q-41 0 -64 -25z" />
    <glyph glyph-name="Yacute" unicode="&#xdd;" horiz-adv-x="639" 
d="M247 290q1 19 1 35q0 147 -47 175q-96 57 -152 189q-41 96 -41 248q0 72 9 156q63 -19 112 -19q62 0 103 30q-31 -110 -56 -303q-1 -20 -1 -38q0 -188 112 -198q9 -1 17 -1q127 0 127 187q0 24 -2 50q-39 185 -81 311q40 -17 94 -27q38 -7 72 -7q61 0 110 24
q-29 -131 -29 -239q0 -44 5 -85q-17 -116 -50 -176q-47 -86 -169 -122q-26 -8 -26 -91q0 -67 17 -184q20 -120 50 -257q-7 24 -108 42q-43 9 -71 9q-38 0 -48 -16q47 145 52 307zM290 1293q-91 -49 -140 -65q18 -8 38 -23q39 -49 46 -79q28 26 74 57q91 61 180 81
q-23 11 -48 29q-52 35 -68 66q-36 -31 -82 -66z" />
    <glyph glyph-name="Thorn" unicode="&#xde;" horiz-adv-x="620" 
d="M297 54h2q49 0 80 113q29 104 31 250v18q0 137 -28 223q-27 89 -74 89q-8 0 -17 -3q-48 -15 -76 -125q-24 -96 -24 -224v-10q1 -134 28 -226q29 -103 78 -105zM241 858l8 2q32 15 67 15q43 0 91 -22q90 -42 146 -140q59 -103 59 -239v-39q0 -165 -84 -342
q-62 -125 -193 -134q-29 0 -53 7l4 -22q-44 24 -92 39q14 -232 71 -305q-44 22 -91 22q-29 0 -59 -8q-50 -11 -104 -28q11 103 17 313q-2 -1 -3 -3q3 20 5 39q5 112 5 231q0 68 -2 140q2 91 2 163q3 406 -21 667q78 -55 147 -55q11 0 23 2q64 11 104 23q-31 -197 -47 -326z
" />
    <glyph glyph-name="germandbls" unicode="&#xdf;" horiz-adv-x="1251" 
 />
    <glyph glyph-name="agrave" unicode="&#xe0;" horiz-adv-x="618" 
d="M244 53h1q43 0 73 60q27 58 30 138q1 12 1 23q0 67 -21 113q-27 58 -74 58h-5q-30 -2 -54 -63q-22 -56 -27 -134q-1 -14 -1 -28q0 -60 15 -104q19 -61 62 -63zM14 717q8 -1 18 -1q44 0 111 12q94 16 139 16h18q152 0 227 -166q37 -132 39 -313q-3 -38 -3 -72
q0 -105 28 -167l13 -67q-11 16 -108 29q-50 7 -79 7q-26 0 -33 -6q40 101 40 196v9q-5 -64 -31 -115q-51 -94 -154 -94h-13q-121 6 -172 91q-34 58 -34 135q0 23 3 47q12 104 69 175q69 74 143 74h10q103 -7 149 -88q24 -43 25 -82q2 18 2 36q0 37 -7 78q-16 112 -81 160
q-23 17 -51 17q-49 0 -111 -55q-60 -31 -96 -83v7q0 61 -16 134q-17 68 -45 86zM204 950l5 3q41 29 62 86q5 -10 11 -20q12 -18 32 -36q63 -58 167 -90l-4 -1q-8 -7 -20 -20q-27 -32 -33 -144q-10 21 -21 39q-20 27 -43 46q-102 107 -197 119q19 5 41 18z" />
    <glyph glyph-name="aacute" unicode="&#xe1;" horiz-adv-x="618" 
d="M244 53h1q43 0 73 60q27 58 30 138q1 12 1 23q0 67 -21 113q-27 58 -74 58h-5q-30 -2 -54 -63q-22 -56 -27 -134q-1 -14 -1 -28q0 -60 15 -104q19 -61 62 -63zM14 717q8 -1 18 -1q44 0 111 12q94 16 139 16h18q152 0 227 -166q37 -132 39 -313q-3 -38 -3 -72
q0 -105 28 -167l13 -67q-11 16 -108 29q-50 7 -79 7q-26 0 -33 -6q40 101 40 196v9q-5 -64 -31 -115q-51 -94 -154 -94h-13q-121 6 -172 91q-34 58 -34 135q0 23 3 47q12 104 69 175q69 74 143 74h10q103 -7 149 -88q24 -43 25 -82q2 18 2 36q0 37 -7 78q-16 112 -81 160
q-23 17 -51 17q-49 0 -111 -55q-60 -31 -96 -83v7q0 61 -16 134q-17 68 -45 86zM221 921q-91 -49 -140 -65q18 -8 38 -23q39 -49 46 -79q28 26 74 57q91 61 180 81q-23 11 -48 29q-52 35 -68 66q-36 -31 -82 -66z" />
    <glyph glyph-name="acircumflex" unicode="&#xe2;" horiz-adv-x="618" 
d="M244 53h1q43 0 73 60q27 58 30 138q1 12 1 23q0 67 -21 113q-27 58 -74 58h-5q-30 -2 -54 -63q-22 -56 -27 -134q-1 -14 -1 -28q0 -60 15 -104q19 -61 62 -63zM14 717q8 -1 18 -1q44 0 111 12q94 16 139 16h18q152 0 227 -166q37 -132 39 -313q-3 -38 -3 -72
q0 -105 28 -167l13 -67q-11 16 -108 29q-50 7 -79 7q-26 0 -33 -6q40 101 40 196v9q-5 -64 -31 -115q-51 -94 -154 -94h-13q-121 6 -172 91q-34 58 -34 135q0 23 3 47q12 104 69 175q69 74 143 74h10q103 -7 149 -88q24 -43 25 -82q2 18 2 36q0 37 -7 78q-16 112 -81 160
q-23 17 -51 17q-49 0 -111 -55q-60 -31 -96 -83v7q0 61 -16 134q-17 68 -45 86zM250 774q-7 7 -5 24q3 32 44 80q17 -12 32 -31q31 -40 23 -82q67 12 118 3q-129 125 -161 231q-78 -137 -184 -231q74 25 133 6z" />
    <glyph glyph-name="atilde" unicode="&#xe3;" horiz-adv-x="618" 
d="M244 53h1q43 0 73 60q27 58 30 138q1 12 1 23q0 67 -21 113q-27 58 -74 58h-5q-30 -2 -54 -63q-22 -56 -27 -134q-1 -14 -1 -28q0 -60 15 -104q19 -61 62 -63zM14 717q8 -1 18 -1q44 0 111 12q94 16 139 16h18q152 0 227 -166q37 -132 39 -313q-3 -38 -3 -72
q0 -105 28 -167l13 -67q-11 16 -108 29q-50 7 -79 7q-26 0 -33 -6q40 101 40 196v9q-5 -64 -31 -115q-51 -94 -154 -94h-13q-121 6 -172 91q-34 58 -34 135q0 23 3 47q12 104 69 175q69 74 143 74h10q103 -7 149 -88q24 -43 25 -82q2 18 2 36q0 37 -7 78q-16 112 -81 160
q-23 17 -51 17q-49 0 -111 -55q-60 -31 -96 -83v7q0 61 -16 134q-17 68 -45 86zM97 839q50 -16 73 -62q-3 43 6 80q18 74 78 42q1 -1 57 -81q43 -62 113 -56q61 6 107 79q23 36 33 72q-18 -6 -46 -5q-55 2 -99 34q-8 -39 -19 -70q-23 -60 -46 -13q-48 102 -126 119
q-97 22 -175 -134q20 2 44 -5z" />
    <glyph glyph-name="adieresis" unicode="&#xe4;" horiz-adv-x="618" 
d="M244 53h1q43 0 73 60q27 58 30 138q1 12 1 23q0 67 -21 113q-27 58 -74 58h-5q-30 -2 -54 -63q-22 -56 -27 -134q-1 -14 -1 -28q0 -60 15 -104q19 -61 62 -63zM14 717q8 -1 18 -1q44 0 111 12q94 16 139 16h18q152 0 227 -166q37 -132 39 -313q-3 -38 -3 -72
q0 -105 28 -167l13 -67q-11 16 -108 29q-50 7 -79 7q-26 0 -33 -6q40 101 40 196v9q-5 -64 -31 -115q-51 -94 -154 -94h-13q-121 6 -172 91q-34 58 -34 135q0 23 3 47q12 104 69 175q69 74 143 74h10q103 -7 149 -88q24 -43 25 -82q2 18 2 36q0 37 -7 78q-16 112 -81 160
q-23 17 -51 17q-49 0 -111 -55q-60 -31 -96 -83v7q0 61 -16 134q-17 68 -45 86zM116 902q-17 -22 -15 -54q2 -31 21 -53q21 -25 54 -25q32 0 53 25q19 22 20 53q1 33 -18 54q-21 25 -60 25q-36 0 -55 -25zM361 901q-20 -23 -19 -57q0 -33 20 -57q22 -26 55 -26q34 0 56 26
q21 23 24 57q2 33 -15 57q-19 25 -57 25q-41 0 -64 -25z" />
    <glyph glyph-name="aring" unicode="&#xe5;" horiz-adv-x="618" 
d="M244 53h1q43 0 73 60q27 58 30 138q1 12 1 23q0 67 -21 113q-27 58 -74 58h-5q-30 -2 -54 -63q-22 -56 -27 -134q-1 -14 -1 -28q0 -60 15 -104q19 -61 62 -63zM14 717q8 -1 18 -1q44 0 111 12q94 16 139 16h18q152 0 227 -166q37 -132 39 -313q-3 -38 -3 -72
q0 -105 28 -167l13 -67q-11 16 -108 29q-50 7 -79 7q-26 0 -33 -6q40 101 40 196v9q-5 -64 -31 -115q-51 -94 -154 -94h-13q-121 6 -172 91q-34 58 -34 135q0 23 3 47q12 104 69 175q69 74 143 74h10q103 -7 149 -88q24 -43 25 -82q2 18 2 36q0 37 -7 78q-16 112 -81 160
q-23 17 -51 17q-49 0 -111 -55q-60 -31 -96 -83v7q0 61 -16 134q-17 68 -45 86zM249 841q-14 19 -15 46t14 46q17 21 48 21q27 0 42 -21q12 -19 10 -46t-17 -46q-16 -21 -41 -21t-41 21zM195 956q-30 -32 -27 -78q3 -47 37 -79q36 -36 93 -36q56 0 92 36q33 32 35 79
q1 46 -31 78q-37 36 -104 36q-62 0 -95 -36z" />
    <glyph glyph-name="ae" unicode="&#xe6;" horiz-adv-x="982" 
d="M244 53h1q43 0 73 60q27 58 30 138q1 12 1 23q0 67 -21 113q-27 58 -74 58h-5q-30 -2 -54 -63q-22 -56 -27 -134q-1 -14 -1 -28q0 -60 15 -104q19 -61 62 -63zM667 680q-55 0 -79 -125q-12 -62 -13 -123l186 18q-1 57 -15 115q-24 115 -79 115zM419 416q-2 17 -5 35
q-16 112 -81 160q-23 17 -51 17q-49 0 -111 -55q-60 -31 -96 -83v7q0 61 -16 134q-17 68 -45 86q8 -1 18 -1q44 0 111 12q94 16 139 16h18q116 0 188 -97q65 99 171 99h2q177 0 261 -193q42 -97 48 -194q-52 10 -112 10q-46 0 -97 -6q-117 -13 -187 -34q3 -63 18 -128
q30 -128 90 -135h6q46 0 84 101q19 52 27 108q19 -27 85 -66q52 -30 94 -44q-28 -44 -77 -90q-97 -90 -204 -91h-2q-55 0 -100 22l9 -47q-11 16 -108 29q-50 7 -79 7q-26 0 -33 -6q40 101 40 196v9q-5 -64 -31 -115q-51 -94 -154 -94h-13q-121 6 -172 91q-34 58 -34 135
q0 23 3 47q12 104 69 175q69 74 143 74h10q103 -7 149 -88q22 -39 25 -75q-1 10 -1 19v19q0 17 1 34z" />
    <glyph glyph-name="ccedilla" unicode="&#xe7;" horiz-adv-x="579" 
d="M255 -13l-18 2q-94 13 -153 115q-54 92 -64 227q-2 28 -2 56q0 99 28 186q37 119 114 163q81 37 153 37q77 0 143 -43q63 -42 100 -98q-24 -16 -67 -48t-55 -79q-4 45 -23 91q-36 102 -132 108q-53 -5 -75 -115q-16 -74 -16 -172q0 -21 1 -43q3 -126 26 -214
q25 -98 65 -100h5q64 0 98 114q17 58 22 118q14 -30 75 -76q53 -40 83 -40q5 0 9 1q-18 -56 -69 -108q-80 -81 -200 -84q-1 -14 -1 -33v-12q0 -11 2 -19q19 5 45 5q68 0 87 -51q5 -16 5 -38v-8q0 -84 -63 -112q-29 -12 -66 -12q-53 0 -122 23v3q29 21 29 62v5q-1 15 -1 22
q52 -31 86 -31h7q49 0 62 48q0 4 1 8q0 36 -41 43h-5q-29 0 -61 -27h-1v1q3 22 3 38v2q0 36 -14 85z" />
    <glyph glyph-name="egrave" unicode="&#xe8;" horiz-adv-x="590" 
d="M265 680q-55 0 -79 -125q-12 -62 -13 -123l186 18q-1 57 -15 115q-24 115 -79 115zM280 66h6q46 0 84 101q19 52 27 108q19 -27 85 -66q52 -30 94 -44q-28 -44 -77 -90q-97 -90 -204 -91h-2q-128 0 -204 118q-70 105 -73 261v19q0 142 57 244q67 120 184 120h2
q177 0 261 -193q42 -97 48 -194q-52 10 -112 10q-46 0 -97 -6q-117 -13 -187 -34q3 -63 18 -128q30 -128 90 -135zM203 933l5 3q41 29 62 86q5 -10 11 -20q12 -18 32 -36q63 -58 167 -90l-4 -1q-8 -7 -20 -20q-27 -32 -33 -144q-10 21 -21 39q-20 27 -43 46
q-102 107 -197 119q19 5 41 18z" />
    <glyph glyph-name="eacute" unicode="&#xe9;" horiz-adv-x="590" 
d="M265 680q-55 0 -79 -125q-12 -62 -13 -123l186 18q-1 57 -15 115q-24 115 -79 115zM280 66h6q46 0 84 101q19 52 27 108q19 -27 85 -66q52 -30 94 -44q-28 -44 -77 -90q-97 -90 -204 -91h-2q-128 0 -204 118q-70 105 -73 261v19q0 142 57 244q67 120 184 120h2
q177 0 261 -193q42 -97 48 -194q-52 10 -112 10q-46 0 -97 -6q-117 -13 -187 -34q3 -63 18 -128q30 -128 90 -135zM211 903q-91 -49 -140 -65q18 -8 38 -23q39 -49 46 -79q28 26 74 57q91 61 180 81q-23 11 -48 29q-52 35 -68 66q-36 -31 -82 -66z" />
    <glyph glyph-name="ecircumflex" unicode="&#xea;" horiz-adv-x="590" 
d="M265 680q-55 0 -79 -125q-12 -62 -13 -123l186 18q-1 57 -15 115q-24 115 -79 115zM280 66h6q46 0 84 101q19 52 27 108q19 -27 85 -66q52 -30 94 -44q-28 -44 -77 -90q-97 -90 -204 -91h-2q-128 0 -204 118q-70 105 -73 261v19q0 142 57 244q67 120 184 120h2
q177 0 261 -193q42 -97 48 -194q-52 10 -112 10q-46 0 -97 -6q-117 -13 -187 -34q3 -63 18 -128q30 -128 90 -135zM227 774q-7 7 -5 24q3 32 44 80q17 -12 32 -31q31 -40 23 -82q67 12 118 3q-129 125 -161 231q-78 -137 -184 -231q74 25 133 6z" />
    <glyph glyph-name="edieresis" unicode="&#xeb;" horiz-adv-x="590" 
d="M265 680q-55 0 -79 -125q-12 -62 -13 -123l186 18q-1 57 -15 115q-24 115 -79 115zM280 66h6q46 0 84 101q19 52 27 108q19 -27 85 -66q52 -30 94 -44q-28 -44 -77 -90q-97 -90 -204 -91h-2q-128 0 -204 118q-70 105 -73 261v19q0 142 57 244q67 120 184 120h2
q177 0 261 -193q42 -97 48 -194q-52 10 -112 10q-46 0 -97 -6q-117 -13 -187 -34q3 -63 18 -128q30 -128 90 -135zM73 892q-17 -22 -15 -54q2 -31 21 -53q21 -25 54 -25q32 0 53 25q19 22 20 53q1 33 -18 54q-21 25 -60 25q-36 0 -55 -25zM318 891q-20 -23 -19 -57
q0 -33 20 -57q22 -26 55 -26q34 0 56 26q21 23 24 57q2 33 -15 57q-19 25 -57 25q-41 0 -64 -25z" />
    <glyph glyph-name="igrave" unicode="&#xec;" horiz-adv-x="514" 
d="M171 718q62 11 122 17q-77 -67 -87 -302q0 -30 1 -63q8 -236 76 -390q-40 12 -118 18q-22 2 -42 2q-55 0 -102 -12q67 162 72 404v35q0 255 -55 327q42 -16 133 -36zM15 981l4 3q42 29 63 86q4 -10 11 -20q12 -18 32 -36q63 -58 167 -90l-4 -1q-8 -7 -20 -20
q-27 -32 -33 -144q-10 21 -22 39q-19 27 -42 46q-102 107 -197 119q18 5 41 18z" />
    <glyph glyph-name="iacute" unicode="&#xed;" horiz-adv-x="514" 
d="M159 718q62 11 122 17q-77 -67 -87 -302q0 -30 1 -63q8 -236 76 -390q-40 12 -118 18q-22 2 -42 2q-55 0 -102 -12q67 162 72 404v35q0 255 -55 327q42 -16 133 -36zM96 963q-91 -49 -140 -65q18 -8 38 -23q39 -49 46 -79q28 26 74 57q91 61 180 81q-23 11 -48 29
q-52 35 -68 66q-36 -31 -82 -66z" />
    <glyph glyph-name="icircumflex" unicode="&#xee;" horiz-adv-x="514" 
d="M159 718q62 11 122 17q-77 -67 -87 -302q0 -30 1 -63q8 -236 76 -390q-40 12 -118 18q-22 2 -42 2q-55 0 -102 -12q67 162 72 404v35q0 255 -55 327q42 -16 133 -36zM95 788q-7 7 -5 24q3 32 44 80q17 -12 32 -31q31 -40 23 -82q67 12 118 3q-129 125 -161 231
q-78 -137 -184 -231q74 25 133 6z" />
    <glyph glyph-name="idieresis" unicode="&#xef;" horiz-adv-x="514" 
d="M169 718q62 11 122 17q-77 -67 -87 -302q0 -30 1 -63q8 -236 76 -390q-40 12 -118 18q-22 2 -42 2q-55 0 -102 -12q67 162 72 404v35q0 255 -55 327q42 -16 133 -36zM-20 941q-17 -22 -15 -54q2 -31 21 -53q21 -25 54 -25q32 0 53 25q19 22 20 53q1 33 -18 54
q-21 25 -60 25q-36 0 -55 -25zM225 940q-20 -23 -19 -57q0 -33 20 -57q22 -26 55 -26q34 0 56 26q21 23 24 57q2 33 -15 57q-19 25 -57 25q-41 0 -64 -25z" />
    <glyph glyph-name="eth" unicode="&#xf0;" horiz-adv-x="1139" 
 />
    <glyph glyph-name="ntilde" unicode="&#xf1;" horiz-adv-x="706" 
d="M702 -7q-22 11 -68 11q-15 0 -33 -1q-83 -4 -132 -21q30 157 30 315v20q-6 336 -121 339h-1q-136 0 -139 -524v-10q0 -138 27 -144q-26 13 -75 13q-17 0 -37 -2q-87 -5 -117 -19q26 157 26 390q0 243 -42 412q33 -31 94 -31h4q66 1 83 15l-17 -217q2 53 28 106
q53 104 173 104h2q165 -2 237 -225q43 -137 54 -388q3 -84 24 -143zM159 839q50 -16 73 -62q-3 43 6 80q18 74 78 42q1 -1 57 -81q43 -62 113 -56q61 6 107 79q23 36 33 72q-18 -6 -46 -5q-55 2 -99 34q-8 -39 -19 -70q-23 -60 -46 -13q-48 102 -126 119q-97 22 -175 -134
q20 2 44 -5z" />
    <glyph glyph-name="ograve" unicode="&#xf2;" horiz-adv-x="666" 
d="M432 148q35 89 41 211q1 21 1 40q0 97 -25 158q-32 91 -97 91h-4q-63 -4 -99 -100q-30 -73 -30 -192v-8q0 -121 31 -206q34 -93 88 -93h1q55 2 93 99zM550 615q84 -110 101 -263q4 -34 4 -65q0 -119 -57 -198q-75 -104 -229 -104q-19 0 -39 2q-183 14 -260 139
q-46 75 -46 175q0 42 8 89q26 138 116 246q91 100 196 100h8q109 -5 198 -121zM267 925l5 3q41 29 62 86q5 -10 11 -20q12 -18 32 -36q63 -58 167 -90l-4 -1q-8 -7 -20 -20q-27 -32 -33 -144q-10 21 -21 39q-20 27 -43 46q-102 107 -197 119q19 5 41 18z" />
    <glyph glyph-name="oacute" unicode="&#xf3;" horiz-adv-x="666" 
d="M432 148q35 89 41 211q1 21 1 40q0 97 -25 158q-32 91 -97 91h-4q-63 -4 -99 -100q-30 -73 -30 -192v-8q0 -121 31 -206q34 -93 88 -93h1q55 2 93 99zM550 615q84 -110 101 -263q4 -34 4 -65q0 -119 -57 -198q-75 -104 -229 -104q-19 0 -39 2q-183 14 -260 139
q-46 75 -46 175q0 42 8 89q26 138 116 246q91 100 196 100h8q109 -5 198 -121zM294 903q-91 -49 -140 -65q18 -8 38 -23q39 -49 46 -79q28 26 74 57q91 61 180 81q-23 11 -48 29q-52 35 -68 66q-36 -31 -82 -66z" />
    <glyph glyph-name="ocircumflex" unicode="&#xf4;" horiz-adv-x="666" 
d="M432 148q35 89 41 211q1 21 1 40q0 97 -25 158q-32 91 -97 91h-4q-63 -4 -99 -100q-30 -73 -30 -192v-8q0 -121 31 -206q34 -93 88 -93h1q55 2 93 99zM550 615q84 -110 101 -263q4 -34 4 -65q0 -119 -57 -198q-75 -104 -229 -104q-19 0 -39 2q-183 14 -260 139
q-46 75 -46 175q0 42 8 89q26 138 116 246q91 100 196 100h8q109 -5 198 -121zM306 761q-7 7 -5 24q3 32 44 80q17 -12 32 -31q31 -40 23 -82q67 12 118 3q-129 125 -161 231q-78 -137 -184 -231q74 25 133 6z" />
    <glyph glyph-name="otilde" unicode="&#xf5;" horiz-adv-x="666" 
d="M432 148q35 89 41 211q1 21 1 40q0 97 -25 158q-32 91 -97 91h-4q-63 -4 -99 -100q-30 -73 -30 -192v-8q0 -121 31 -206q34 -93 88 -93h1q55 2 93 99zM550 615q84 -110 101 -263q4 -34 4 -65q0 -119 -57 -198q-75 -104 -229 -104q-19 0 -39 2q-183 14 -260 139
q-46 75 -46 175q0 42 8 89q26 138 116 246q91 100 196 100h8q109 -5 198 -121zM138 819q50 -16 73 -62q-3 43 6 80q18 74 78 42q1 -1 57 -81q43 -62 113 -56q61 6 107 79q23 36 33 72q-18 -6 -46 -5q-55 2 -99 34q-8 -39 -19 -70q-23 -60 -46 -13q-48 102 -126 119
q-97 22 -175 -134q20 2 44 -5z" />
    <glyph glyph-name="odieresis" unicode="&#xf6;" horiz-adv-x="666" 
d="M432 148q35 89 41 211q1 21 1 40q0 97 -25 158q-32 91 -97 91h-4q-63 -4 -99 -100q-30 -73 -30 -192v-8q0 -121 31 -206q34 -93 88 -93h1q55 2 93 99zM550 615q84 -110 101 -263q4 -34 4 -65q0 -119 -57 -198q-75 -104 -229 -104q-19 0 -39 2q-183 14 -260 139
q-46 75 -46 175q0 42 8 89q26 138 116 246q91 100 196 100h8q109 -5 198 -121zM161 887q-17 -22 -15 -54q2 -31 21 -53q21 -25 54 -25q32 0 53 25q19 22 20 53q1 33 -18 54q-21 25 -60 25q-36 0 -55 -25zM406 886q-20 -23 -19 -57q0 -33 20 -57q22 -26 55 -26q34 0 56 26
q21 23 24 57q2 33 -15 57q-19 25 -57 25q-41 0 -64 -25z" />
    <glyph glyph-name="divide" unicode="&#xf7;" horiz-adv-x="560" 
d="M335 193q21 -23 21 -55v-5q-2 -34 -25 -58q-26 -26 -68 -26q-41 0 -64 28q-18 26 -18 60v3q1 37 21 61q30 25 64 25h7q47 -4 62 -33zM212 640q23 23 56 23h3q34 -2 59 -25q26 -26 27 -67q0 -42 -28 -64q-25 -21 -62 -21q-37 1 -62 22q-24 21 -24 53v7q3 47 31 72z
M503 349q8 -58 13 -114q-48 71 -211 77q-21 0 -44 -2q-125 -10 -221 -76q8 37 11 111q1 20 1 39q0 52 -9 96q103 -61 232 -62h24q178 4 227 57q-11 -40 -23 -126z" />
    <glyph glyph-name="oslash" unicode="&#xf8;" horiz-adv-x="666" 
d="M432 148q35 89 41 211q1 21 1 40q0 97 -25 158q-32 91 -97 91h-4q-63 -4 -99 -100q-30 -73 -30 -192v-8q0 -121 31 -206q34 -93 88 -93h1q55 2 93 99zM482 685q35 -28 68 -70q84 -110 101 -263q4 -34 4 -65q0 -119 -57 -198q-75 -104 -229 -104q-19 0 -39 2q-6 0 -12 1
q-38 -189 -67 -376q-38 25 -90 25q-45 0 -99 -18q69 177 131 400q-79 36 -123 107q-46 75 -46 175q0 42 8 89q26 138 116 246q91 100 196 100h14q33 194 33 322q0 25 -1 47q52 -22 111 -22q49 0 103 16q-65 -208 -122 -414z" />
    <glyph glyph-name="ugrave" unicode="&#xf9;" 
d="M119 693h19q61 0 85 17q-27 -166 -34 -313q-2 -39 -2 -73q0 -231 89 -237h5q97 0 121 313q9 112 9 237q0 58 -2 118q17 -36 96 -39q69 6 97 31q-24 -128 -24 -302v-39q3 -356 20 -455q-20 25 -79 28q-16 1 -29 1q-35 0 -50 -6q9 22 17 105q6 66 6 98v14q-4 -54 -29 -105
q-46 -97 -144 -97h-12q-118 6 -182 151q-55 124 -56 272q-2 239 -27 311q31 -26 106 -30zM137 915l5 3q41 29 62 86q5 -10 11 -20q12 -18 32 -36q63 -58 167 -90l-4 -1q-8 -7 -20 -20q-27 -32 -33 -144q-10 21 -21 39q-20 27 -43 46q-102 107 -197 119q19 5 41 18z" />
    <glyph glyph-name="uacute" unicode="&#xfa;" 
d="M119 693h19q61 0 85 17q-27 -166 -34 -313q-2 -39 -2 -73q0 -231 89 -237h5q97 0 121 313q9 112 9 237q0 58 -2 118q17 -36 96 -39q69 6 97 31q-24 -128 -24 -302v-39q3 -356 20 -455q-20 25 -79 28q-16 1 -29 1q-35 0 -50 -6q9 22 17 105q6 66 6 98v14q-4 -54 -29 -105
q-46 -97 -144 -97h-12q-118 6 -182 151q-55 124 -56 272q-2 239 -27 311q31 -26 106 -30zM292 893q-91 -49 -140 -65q18 -8 38 -23q39 -49 46 -79q28 26 74 57q91 61 180 81q-23 11 -48 29q-52 35 -68 66q-36 -31 -82 -66z" />
    <glyph glyph-name="ucircumflex" unicode="&#xfb;" 
d="M119 693h19q61 0 85 17q-27 -166 -34 -313q-2 -39 -2 -73q0 -231 89 -237h5q97 0 121 313q9 112 9 237q0 58 -2 118q17 -36 96 -39q69 6 97 31q-24 -128 -24 -302v-39q3 -356 20 -455q-20 25 -79 28q-16 1 -29 1q-35 0 -50 -6q9 22 17 105q6 66 6 98v14q-4 -54 -29 -105
q-46 -97 -144 -97h-12q-118 6 -182 151q-55 124 -56 272q-2 239 -27 311q31 -26 106 -30zM268 774q-7 7 -5 24q3 32 44 80q17 -12 32 -31q31 -40 23 -82q67 12 118 3q-129 125 -161 231q-78 -137 -184 -231q74 25 133 6z" />
    <glyph glyph-name="udieresis" unicode="&#xfc;" 
d="M119 693h19q61 0 85 17q-27 -166 -34 -313q-2 -39 -2 -73q0 -231 89 -237h5q97 0 121 313q9 112 9 237q0 58 -2 118q17 -36 96 -39q69 6 97 31q-24 -128 -24 -302v-39q3 -356 20 -455q-20 25 -79 28q-16 1 -29 1q-35 0 -50 -6q9 22 17 105q6 66 6 98v14q-4 -54 -29 -105
q-46 -97 -144 -97h-12q-118 6 -182 151q-55 124 -56 272q-2 239 -27 311q31 -26 106 -30zM133 912q-17 -22 -15 -54q2 -31 21 -53q21 -25 54 -25q32 0 53 25q19 22 20 53q1 33 -18 54q-21 25 -60 25q-36 0 -55 -25zM378 911q-20 -23 -19 -57q0 -33 20 -57q22 -26 55 -26
q34 0 56 26q21 23 24 57q2 33 -15 57q-19 25 -57 25q-41 0 -64 -25z" />
    <glyph glyph-name="yacute" unicode="&#xfd;" horiz-adv-x="699" 
d="M133 695q19 -1 36 -1q83 0 126 24q-51 -96 -64 -220q-23 -160 -23 -242q0 -20 1 -35q14 -153 125 -156h4q121 0 152 188q6 39 6 89q0 96 -23 232q-9 129 -40 168q54 -11 128 -11q45 0 86 9q40 7 38 7q-14 -38 -14 -149q0 -94 10 -240v-9q0 -337 -71 -551
q-74 -196 -222 -255q-37 -14 -140 -39q-99 -24 -159 -49q11 46 11 86q0 41 -11 77q-38 104 -73 143q71 -20 153 -20q76 0 160 17q228 61 228 370q0 43 -4 90q-5 -58 -33 -117q-54 -117 -168 -122h-19q-170 0 -242 121q-32 48 -32 259v82q0 232 -50 275q49 -17 124 -21z
M351 903q-91 -49 -140 -65q18 -8 38 -23q39 -49 46 -79q28 26 74 57q91 61 180 81q-23 11 -48 29q-52 35 -68 66q-36 -31 -82 -66z" />
    <glyph glyph-name="thorn" unicode="&#xfe;" horiz-adv-x="736" 
d="M312 382q0 -156 62 -280q24 -32 46 -32h5q62 0 93 266q2 28 2 60v29q0 202 -68 255q-18 12 -38 12q-88 0 -102 -239v-71zM64 479q-7 545 -46 622q41 -20 119 -25q59 6 126 25q-67 -82 -58.5 -268.5t9.5 -223.5q69 164 249 164h8q138 0 214 -195q41 -118 41 -250
q0 -164 -93 -282q-65 -56 -111 -56q-14 -6 -53 -6h-10q-147 0 -238 161q-6 10 -6 14h-2v-2q4 -49 4 -109v-16q0 -142 -57 -350q-81 -250 -261 -250h-6q-142 0 -234 143q-56 84 -105 135q-49 38 -106 38h-28q34 68 131 105q22 6 41 6h8q89 0 202 -125q60 -48 105 -48
q121 0 139 381t18 412z" />
    <glyph glyph-name="ydieresis" unicode="&#xff;" horiz-adv-x="699" 
d="M133 695q19 -1 36 -1q83 0 126 24q-51 -96 -64 -220q-23 -160 -23 -242q0 -20 1 -35q14 -153 125 -156h4q121 0 152 188q6 39 6 89q0 96 -23 232q-9 129 -40 168q54 -11 128 -11q45 0 86 9q40 7 38 7q-14 -38 -14 -149q0 -94 10 -240v-9q0 -337 -71 -551
q-74 -196 -222 -255q-37 -14 -140 -39q-99 -24 -159 -49q11 46 11 86q0 41 -11 77q-38 104 -73 143q71 -20 153 -20q76 0 160 17q228 61 228 370q0 43 -4 90q-5 -58 -33 -117q-54 -117 -168 -122h-19q-170 0 -242 121q-32 48 -32 259v82q0 232 -50 275q49 -17 124 -21z
M134 902q-17 -22 -15 -54q2 -31 21 -53q21 -25 54 -25q32 0 53 25q19 22 20 53q1 33 -18 54q-21 25 -60 25q-36 0 -55 -25zM379 901q-20 -23 -19 -57q0 -33 20 -57q22 -26 55 -26q34 0 56 26q21 23 24 57q2 33 -15 57q-19 25 -57 25q-41 0 -64 -25z" />
    <glyph glyph-name="circumflex" unicode="&#x2c6;" horiz-adv-x="367" 
d="M143 794q-7 7 -5 24q3 32 44 80q17 -12 32 -31q31 -40 23 -82q67 12 118 3q-129 125 -161 231q-78 -137 -184 -231q74 25 133 6z" />
    <glyph glyph-name="tilde" unicode="&#x2dc;" horiz-adv-x="579" 
d="M74 819q50 -16 73 -62q-3 43 6 80q18 74 78 42q1 -1 57 -81q43 -62 113 -56q61 6 107 79q23 36 33 72q-18 -6 -46 -5q-55 2 -99 34q-8 -39 -19 -70q-23 -60 -46 -13q-48 102 -126 119q-97 22 -175 -134q20 2 44 -5z" />
    <glyph glyph-name="endash" unicode="&#x2013;" horiz-adv-x="1108" 
 />
    <glyph glyph-name="emdash" unicode="&#x2014;" horiz-adv-x="2048" 
 />
    <glyph glyph-name="quoteleft" unicode="&#x2018;" horiz-adv-x="557" 
 />
    <glyph glyph-name="quoteright" unicode="&#x2019;" horiz-adv-x="557" 
 />
    <glyph glyph-name="quotesinglbase" unicode="&#x201a;" horiz-adv-x="557" 
 />
    <glyph glyph-name="quotedblleft" unicode="&#x201c;" horiz-adv-x="910" 
 />
    <glyph glyph-name="quotedblright" unicode="&#x201d;" horiz-adv-x="910" 
 />
    <glyph glyph-name="quotedblbase" unicode="&#x201e;" horiz-adv-x="910" 
 />
    <glyph glyph-name="dagger" unicode="&#x2020;" horiz-adv-x="270" 
d="M325 796q-52 0 -111 -15q-22 -170 -22 -317q-20 -470 200 -595q-48 -12 -94 -49q-56 -47 -74 -101q-56 57 -112 185q-92 240 -39 877l-47 10q-47 0 -104 -38q21 33 21 69q-20 95 -65 123q118 -41 202 -44q-3 148 -72 250q-39 62 -64 76q51 0 133 27q69 52 78 67
q79 -106 79 -261q0 -16 -1 -33q0 -19 -19 -125q146 14 217 75q-18 -36 -18 -82q0 -68 20 -127q-74 28 -108 28z" />
    <glyph glyph-name="daggerdbl" unicode="&#x2021;" horiz-adv-x="1014" 
 />
    <glyph glyph-name="bullet" unicode="&#x2022;" horiz-adv-x="314" 
d="M53 540q-30 -44 -27 -108q3 -66 37 -110q36 -50 93 -50q56 0 92 50q33 44 35 110q1 64 -31 108q-37 50 -104 50q-62 0 -95 -50z" />
    <glyph glyph-name="ellipsis" unicode="&#x2026;" horiz-adv-x="676" 
d="M171 144q-23 22 -58 21q-33 -1 -57 -22q-27 -25 -27 -63q0 -36 27 -62q23 -22 57 -25q35 -4 58 16q27 22 27 63q0 46 -27 72zM332 -11q30 6 51 37q20 29 19 63q-1 39 -29 62q-26 22 -61 15q-30 -6 -54 -35q-24 -27 -24 -59q0 -37 30 -62q33 -28 68 -21zM629 80
q-2 34 -27 60q-24 25 -55 29q-35 3 -59 -24q-24 -26 -22 -64q-7 -44 16 -72q22 -30 51 -34q33 -5 60 24q30 33 36 81z" />
    <glyph glyph-name="guilsinglleft" unicode="&#x2039;" horiz-adv-x="631" 
 />
    <glyph glyph-name="guilsinglright" unicode="&#x203a;" horiz-adv-x="631" 
 />
    <glyph glyph-name="Euro" unicode="&#x20ac;" horiz-adv-x="1014" 
 />
    <glyph glyph-name="trademark" unicode="&#x2122;" horiz-adv-x="1497" 
 />
  </font>
</defs>
</svg>
